<mxfile host="65bd71144e">
    <diagram id="Svq0J9bf26MSMh6Xc_vO" name="Page-1">
        <mxGraphModel dx="1816" dy="1195" grid="1" gridSize="10" guides="1" tooltips="1" connect="1" arrows="1" fold="1" page="1" pageScale="1" pageWidth="850" pageHeight="1100" math="0" shadow="0">
            <root>
                <mxCell id="0"/>
                <mxCell id="1" parent="0"/>
                <mxCell id="2" value="" style="sketch=0;points=[[0,0,0],[0.25,0,0],[0.5,0,0],[0.75,0,0],[1,0,0],[0,1,0],[0.25,1,0],[0.5,1,0],[0.75,1,0],[1,1,0],[0,0.25,0],[0,0.5,0],[0,0.75,0],[1,0.25,0],[1,0.5,0],[1,0.75,0]];outlineConnect=0;fontColor=#232F3E;fillColor=#7AA116;strokeColor=#ffffff;dashed=0;verticalLabelPosition=bottom;verticalAlign=top;align=center;html=1;fontSize=12;fontStyle=0;aspect=fixed;shape=mxgraph.aws4.resourceIcon;resIcon=mxgraph.aws4.s3;" parent="1" vertex="1">
                    <mxGeometry x="350.5" y="521" width="39.5" height="39.5" as="geometry"/>
                </mxCell>
                <mxCell id="3" value="" style="sketch=0;points=[[0,0,0],[0.25,0,0],[0.5,0,0],[0.75,0,0],[1,0,0],[0,1,0],[0.25,1,0],[0.5,1,0],[0.75,1,0],[1,1,0],[0,0.25,0],[0,0.5,0],[0,0.75,0],[1,0.25,0],[1,0.5,0],[1,0.75,0]];outlineConnect=0;fontColor=#232F3E;fillColor=#8C4FFF;strokeColor=#ffffff;dashed=0;verticalLabelPosition=bottom;verticalAlign=top;align=center;html=1;fontSize=12;fontStyle=0;aspect=fixed;shape=mxgraph.aws4.resourceIcon;resIcon=mxgraph.aws4.cloudfront;" parent="1" vertex="1">
                    <mxGeometry x="213" y="520" width="40" height="40" as="geometry"/>
                </mxCell>
                <mxCell id="4" value="" style="endArrow=classic;html=1;" parent="1" edge="1">
                    <mxGeometry width="50" height="50" relative="1" as="geometry">
                        <mxPoint x="263" y="539.6400000000001" as="sourcePoint"/>
                        <mxPoint x="340" y="540" as="targetPoint"/>
                    </mxGeometry>
                </mxCell>
                <mxCell id="5" value="" style="sketch=0;points=[[0,0,0],[0.25,0,0],[0.5,0,0],[0.75,0,0],[1,0,0],[0,1,0],[0.25,1,0],[0.5,1,0],[0.75,1,0],[1,1,0],[0,0.25,0],[0,0.5,0],[0,0.75,0],[1,0.25,0],[1,0.5,0],[1,0.75,0]];outlineConnect=0;fontColor=#232F3E;fillColor=#E7157B;strokeColor=#ffffff;dashed=0;verticalLabelPosition=bottom;verticalAlign=top;align=center;html=1;fontSize=12;fontStyle=0;aspect=fixed;shape=mxgraph.aws4.resourceIcon;resIcon=mxgraph.aws4.api_gateway;" parent="1" vertex="1">
                    <mxGeometry x="-40" y="240" width="40" height="40" as="geometry"/>
                </mxCell>
                <mxCell id="8" value="" style="sketch=0;points=[[0,0,0],[0.25,0,0],[0.5,0,0],[0.75,0,0],[1,0,0],[0,1,0],[0.25,1,0],[0.5,1,0],[0.75,1,0],[1,1,0],[0,0.25,0],[0,0.5,0],[0,0.75,0],[1,0.25,0],[1,0.5,0],[1,0.75,0]];outlineConnect=0;fontColor=#232F3E;fillColor=#C925D1;strokeColor=#ffffff;dashed=0;verticalLabelPosition=bottom;verticalAlign=top;align=center;html=1;fontSize=12;fontStyle=0;aspect=fixed;shape=mxgraph.aws4.resourceIcon;resIcon=mxgraph.aws4.dynamodb;" parent="1" vertex="1">
                    <mxGeometry x="90" y="120" width="40" height="40" as="geometry"/>
                </mxCell>
                <mxCell id="9" value="" style="sketch=0;points=[[0,0,0],[0.25,0,0],[0.5,0,0],[0.75,0,0],[1,0,0],[0,1,0],[0.25,1,0],[0.5,1,0],[0.75,1,0],[1,1,0],[0,0.25,0],[0,0.5,0],[0,0.75,0],[1,0.25,0],[1,0.5,0],[1,0.75,0]];outlineConnect=0;fontColor=#232F3E;fillColor=#ED7100;strokeColor=#ffffff;dashed=0;verticalLabelPosition=bottom;verticalAlign=top;align=center;html=1;fontSize=12;fontStyle=0;aspect=fixed;shape=mxgraph.aws4.resourceIcon;resIcon=mxgraph.aws4.lambda;" parent="1" vertex="1">
                    <mxGeometry x="90" y="240" width="40" height="40" as="geometry"/>
                </mxCell>
                <mxCell id="11" value="" style="sketch=0;outlineConnect=0;fontColor=#232F3E;gradientColor=none;fillColor=#232F3D;strokeColor=none;dashed=0;verticalLabelPosition=bottom;verticalAlign=top;align=center;html=1;fontSize=12;fontStyle=0;aspect=fixed;pointerEvents=1;shape=mxgraph.aws4.client;" parent="1" vertex="1">
                    <mxGeometry x="-160" y="240" width="41.05" height="40" as="geometry"/>
                </mxCell>
                <mxCell id="18" value="" style="sketch=0;points=[[0,0,0],[0.25,0,0],[0.5,0,0],[0.75,0,0],[1,0,0],[0,1,0],[0.25,1,0],[0.5,1,0],[0.75,1,0],[1,1,0],[0,0.25,0],[0,0.5,0],[0,0.75,0],[1,0.25,0],[1,0.5,0],[1,0.75,0]];outlineConnect=0;fontColor=#232F3E;gradientColor=#4D72F3;gradientDirection=north;fillColor=#3334B9;strokeColor=#ffffff;dashed=0;verticalLabelPosition=bottom;verticalAlign=top;align=center;html=1;fontSize=12;fontStyle=0;aspect=fixed;shape=mxgraph.aws4.resourceIcon;resIcon=mxgraph.aws4.simple_email_service;" parent="1" vertex="1">
                    <mxGeometry x="220.5" y="240" width="40" height="40" as="geometry"/>
                </mxCell>
                <mxCell id="21" value="" style="sketch=0;outlineConnect=0;fontColor=#232F3E;gradientColor=none;fillColor=#232F3D;strokeColor=none;dashed=0;verticalLabelPosition=bottom;verticalAlign=top;align=center;html=1;fontSize=12;fontStyle=0;aspect=fixed;pointerEvents=1;shape=mxgraph.aws4.client;" parent="1" vertex="1">
                    <mxGeometry x="350.53" y="180" width="41.05" height="40" as="geometry"/>
                </mxCell>
                <mxCell id="24" value="" style="shape=image;verticalLabelPosition=bottom;labelBackgroundColor=default;verticalAlign=top;aspect=fixed;imageAspect=0;image=data:image/png,iVBORw0KGgoAAAANSUhEUgAAAgAAAAIACAIAAAB7GkOtAAAAAXNSR0IArs4c6QAAIABJREFUeAHtvW9oXce56K2Pl8vlUg7BhBCMEUIIVSgbVVWFjr3RMa5f4xpj3HtznJK24TT3kt5CSeHtaSghJTUm5KY9py/9UPqhH3rSkASfJCccQiDwUspNMUmaNMGowjGKI1RVVVRF9rEdKVaFL2vPXs961qxZa82fZ/aeNfsJw2LW2nur9q78/OY3zzMzQ0sT08V2ZXLats1cmVS35dYMXZtdbiVtZYq4rU7Poja3Ok3Q1mbmKtvBtRnzNntwzbCtz7ar2lx73aFtzLXTNr8xl7aD8xsUbfPgfNba85tJO0zVtuYPl7cjW/M27drhIybt6LXD9e36kaNu7dj1I3K7efQYbds+dpy+HT++XWifHj/h1E6c+FSj7Z44qdtOnty1bXsnT6nbqVN7dO32qdNJOy23oWL0F08sALDcmul8Sg2AK5P2AFiZml1uzeCrAAAJA1an51amZsW104mNAetzbUGLKgDMGgBg4+D8+lwbX5PbrKUAmNMFwGb78MbBJKwrr8lD3KwYsDWfMGNr/oh07dySMeDa4S4wTABwRAcA1w47AuBoEQDXj5ABYPvYccESegAcUwBg+/hxJwAc1wLApydO6ALghC4A9k6e2j15cu9Udk1u3Rhw+9TpvVOnbp+uuiZvUDGgFABLE9YSMF0mAS4MUNkDe4CBBwgMUDFA0oUuDBwYUOEKXTA4M0ApDSkSyBgA0jBoDACZYAYY2UAXBm4MqHWFLh4KDKgCgB0D2APKJo4qJ4LmbCaCZgwAAFNGVAyQDEAgwYcHABt8eABQoXwiKPEGo8YewAyoZgD2AHinVw8AQkgeUAMAOwak00f0c0HsAQpOmCQDPHkAhoELAyDW405uaojaA1IDEFND7AGUk0L0GCgkA5o7F5TFfTQd5MgAiPLFTm6CCHlAPQDsGMAeMFAeIM8IOcwF5cJ9JyuAYUCeDwADEB32AJjJse5wPgCCe3VHeID0HkcGlOUDJCSAB2gBwI4B7AHBMoDcA3IGIFLEDgyQI34xOUznAXkDYA8gMwDOCUuRvewWJ4T95QNyBiDSxR0P0AWAHQPYA4JlAG1dkGQAtPkAiQfiliofIBkAe4D1wF/6IHtAWcTXeU7uAZIBiNvbp04bAMCOAewBwTKgKR5QnBSirQsqSgBtbSgkkLkuiDIrEFc+wLcHKAyg4wFDSxNTZUsBlM/TgG5QJMoeECwDGuEBSgOg8oCiAQge0DKA64IoQz8sN4uLAUUzIPQApQHsnTolAOCdASk2uC5IXlrc99rQRnhAmQSQ5ITTaZ9sjRhaLMZ1QWRZAWZAMcRLT/x5QLUBTLEHlO0qEf06YfL1AeT5gDIDEFQgZAAmAZgB1wVJk/sWt5wPkAK90S2JB9QaQC8YwB4Q7FxQQz0gif6iRoioLgjN/2RCQMgAzgewB9RGfx8eoGMAvWAA5wOCZUDg+YCiB4AB0OYDgAEgAZwPsBj1Fz/CHlAb+ive4OgBmgbQCwawBwTLgMZ5QGYApB6AcgDsAckeosVo7viEPaAi1ouXeuMBkAQWoR+uij2ilUVBdrWh7AHBMqBBHiAZAJUHiH1D8fAf+oRzQVwXxAyoZUDxDeQeUAYArgvSOmkAHR6QbChN0rguqDjbU3wC0b+bA8CrhUnzAXiVAO1cEOcDmAHFEC898e0BFQDwzgD2gDJg9J0BjfAAYIACD0QMgLE/TArRMoA9gBkgRXydW0IPqAaAdwZwPiBYBjQiHyDnADx7AGCAcC6IPYAZUBv0/XlALQC8M4A9IFgGBO4BFQZAlQ9QGoB4SMgA9gBmQC0Dim8g8QAdAHhnAHtAsAxohAco0gAdFSBcIwa1oTglQMgA9gBmQDHES098eMDQ0jhU/lR3uC5IkRbmdcLd88UcDpR3PE+4mADoDv+9MSCvBWR7RbAHMAOkiK9z6+gBHQCEwQD2APaAzmlixmfK44iPbSDLENDlhPMGwOcHEC8RYAbUBn1aD0gBEAYDOB8QLAMCzwcUPUDKEPD5AdcOH71+xLEli8Kk5rgiDD7O64RrQ3/FG6w9YOjy+FQyCyRasjV0bfM7F8QeECwDGpcPyAxAVAcReUBRAmhrQzkfwB5QEevFS1QekAAgNAawBwTLgAZ5gGQA3WkiIgbk0wDJRBAtAzgfwAyoZUDxDRYe0AVAaAxgDwiWAQ3yANkAvHkArw/g/YI+PXGiuu2eOKnbTp4sBnflE3cP6EwBTSQSEBoD2AOCZUAjPEBpAD48ACpE2QNgQt+xw/kAZbjXfGjkAZkBBMgA9oBgGdAID1AbgAcPQAbAdUFcF1SlAroScEJXAnZPnnTxgAwAS+wBrdnlTis7HUz/Oa8P6Pv6gAoDoPUAyQDYAxyH//Bx9gDNIb/ybZoekAFAGAB7ABUDJFrwvqHKoyKlhxsH55N1Yfg61+4sDmhvzJGtDwA2uNeGQja4WBrE64QhlLt3OCesjPL4oZ0HyABgDxAAWG4p1v1KMb32lj2g7x5QXB/QHf7TrRPm8wOklQHi1j3oi5/AHoCjvGm/1gNkALAHLLdmCBkgQYI9QBryK29zBiBswIMHZBkCotrQogTQ1oby+gD2gFoAmHqAGgDsAYQMYA8I0ANgFog2HwAzQpAWpmUArw9gBtQyoPiGCg9QA4A9gD1gbeagKPfUvDaiLkjEfYj++JYqH4A9ADDA+QCqGaGbR48xA4ohXnqi7wFVAGAPYA/QjP74bd3x/mxb3Qlj31BgAE4SUDEgLQTqrhBOb3nfUNcKUc4HSIHe6FbpAVUAYA9gD4jYA7IcgFgZwOsDDh+91mkh7xkHJsEeUBv9dTygHgDsAewBeICv2VcP/0EL+u0BSgOgzQfw+gCpOghit2OHPaA29Fe8QfKAegCwB7AHROkBagMg9QCUAxArhHmdsOsskAQP9oCKWC9eqvYAXQCwB7AHaI798duC9YAKA6DyAF4fIBkArw+o3i1OvOpjr4giJMADdAHAHsAeEKUH5AqBUDIg8QPc2vObSUu2fTZtuC4I5oW4Lkgay7vcsgcUQ7z0pMwDzADAHsAegAf4mv1gPQCXAOE++AEVAzAzfDCA1wcwA6SIr3O7d/KUGQDYA9gDBsQDsgyBBw9AuQGy2lBeJ8wMqA36RQ8YujzewmFdp88ewB6gOfbHb2uQB4ABUOUDlAYgHhLOBbEHMANqGSC9QQDAmAHACT5PWNrtx/2W9wtSbhAkPfS9X1BmAKR1QWj+h+uCkvPlXab+lZ9lBkghvniLPQAAYMwA9gD2ADzA1+w3wgMkA6D1AGBAXgvI5oLYA5gBxaBf9gQDwJgB7AGEDJDUgT1AGvIrb/15gGwApB6AcgDsAewBVSeI+asNFR4gAcCYAewBhAzgfUO7fhD1OmFeH8DrAz49fiJrdafJ+2PA7smTRQAYM4A9gJAB7AEWDPDhAWoDIPUAMReErx0zIJsL4rogngsqm/mB50OXx1qdQiDpOgVhXafDHkDIAPYACwYUJ4jSgyRtzpJU5gByCwWIakPzaYBkOoiWAZwPYAZArFd2OgCgYABwguuCpFG8+y3nA4rxvfjEhwcIEhSviR/gRrROGOUG2APICoSYAcrQLx6mAKBgAHsAe4BmLRB+WyPqgnLD/85EECED0oF/1wDSWzIGsAcwA8oYgABAwQD2AEIGSOrAHlAc9Ref9MYDsgwBqQcgAxDVQWQM4HwAM0DJgDwAKBjAHkDIAM4H9D0fgMf+3QUBqQF0b6kZkE8MkDGAPYAZUGRAAQAUDGAPIGQAe4AFA3x7QGYApHVBBQNgDyDLBIhlw8wAiQFDl8ZaSSGQ1JINgqTGdUEznZ3g1NeVqdnl1gy+EjKAPcCCAYrZobl2Who0vzGXtoPzxTF+9RNljZB7TpjXB/D6gGxxwPH61WEk6wMSAHhiAHsAIQPYAywY4M8DZAMg9QC8MgD2jSDcM47zAewB4AFdAHhiAOcDCBnAHmDBAB8eoDQA2nxAPg3A6wPIJoL4PGEI/aLTmQIan2IPuDI5g1vFbI/5S7MCA9Io3v2W64KK8b34xIcHqA3Amweg3ABZTpg9gD0g2QpChH64yskAipwwewB7AC781+x3x/uzbXWnf/sFVRiADw+AWSBeH6Dc/9niIXsAeECaA+hIwGVxlRLCFAzgfAAhAyR1YA8ojvqLT3x4QHGFMLDBPSechnuY/xEVQVwXRDYdxHVBCgPwNxfEHkDIAM4HBJIPKNYL+WNAPjFANhfE6wMGeS4oNwXUNQD2AM4HTM+tTs+tzVS3g8n5wKZt9qDmFNDa7MH1uXZyLZsFEs9N5oJ64wFZhoBojRjKAbAH8PkB9RWiuydOarYcACATwB6AE8JXJtW1/zrZYLwyQPTZA/QBAO8kZIBidohofUA3AUC9TpjXB/D6AH/rAxQAYA+Qor+41Qn32u/huqCYPSAzAG91QZAZ5vUBFkngso8M4FyQAgDsAUoAsAeUzwiZTwTNGACgWR4AOQCcHqDKCefTAJAf5nyAa2Z4YOuCSgHAHqDEgPYYX2fWiD3AAAMNygfIBuDNA1BugIwBvD5goDygFADsAUoAsAewB+ChfbGvNIBueoAuJwyhH5yAcC6I64IGhwE1AGAPUGKAPaAEA97nghrhAWoD8OABgIF0+yD2ANe5IEgPDAgDagDAHqAEAHtACQDmjKtCRRWpSW2oSAkEWxdUYQC0HgB5YJCADg/IGMAeMAgM0AIAe4ASA+wBJRhgD0i2mBYkKF6Tl3BzOE+4YAC8TpjMAAZknbAWANgDlABgDygBAHtA6RkD4AfuDOD1Abw+wH19gAEA2AOUGGAPKMEAe4DaAzI5IPKANAGQLRKmnQviuqCI54IMAMAeoAQAe0AJANgDFB4ABkCbD8inAXh9ANlEUPTrA4wBwB6gxAB7QAkG2ANkD8gMwENdEGSGUy0gywmzB0TpAcYAYA9QAoA9oAQA7AE5D5AMwIcHAAOEFvD6AKjstO5E7AGWAGAPUGKAPaAEA+wBmQfIBuDBAwrVQewBlJNC9Cpw/Ph2oeUSvMdPGN+eqN809NMTJ4YujU5Kg3qLWz5HDHhgzQDeN1SxhiCi9QHdwX4n3Iu+dHWvC0qH/N0cQD4xQMYAXh9AD4BjCgBsHz9uHPQlTmgwoAMAWwawB0Dcxx1rBqg+yPsFxbZfkNoASD2gYAC8PoDMACJbH5ACwJYBWBfYAwADqlCusz3cDHtA3B6gzAFgFXD3AF4fwOsDcupQ6QEIALYMYA+AuI871gxQfZA9IDYPECQoXhM/wM1hnXBaCMTrA5JDxK4fIZaAm0ePRTAXlAeALQPYA3Doh74qlLMHcF1Qri4oN/xPMwRUDMinAXh9ABkDoqkLKgDAlgHsARD3cceaAaoPsgfE7wFZhsCDB6DcAFlOmNcHNNoDVACwZQB7AA790FeFcvYA9gCFB0gZAloP4PUBkBuwXhAgfTACDygBgC0D2AMg7uOONQNUH2QPiNkDMgMgrQuC6J9PDLAHUE4K0atAYXEAeW1oOQBsGcAegEM/9FWhnD2APSDnAZIBiPQAlQcAA/KJATIG8PoAegD4Xx8wtDh2T7IWrKyNtXBA1+yzB0Dcxx1rBqg+yB4QpwfIBkDqASgHkJUGEe4VwfmAxjEgAYAPBmBU8PoAwIAqlLMHsAd0PUBpAFQewOsDIAeAO9K0vvVtQ/MBXQD4YAB7AMR93LFmgOqD7AGxeYDaAEg9IJ8GoK8NZQ9okAdkAPDBAPYAHPqhrwrl7AHsAd1TJPHKAKlPlQ/IpwHoGcD5gKYwYGhxdFLMAnmaC2IPgLiPO9YMUH2QPSA2DyiuEIbZISoGYA9AuQGynDB7QCMY0AGAZwawB+DQD31VKGcPYA/I1QVhAyBngPAAqTqIMCfMHhA+A1IAeGYAewDEfdyxZoDqg+wB8XtAliEgXSeMDEBUB7EHDMr6AAQAzwxgD8ChH/qqUM4ewB6g8AAwAKq6IKUBpA/JGMAeELIH5AHgmQHsARD3cceaAaoPsgfE7AGZAZDWBRUMgD2AzABEXWmwDCgAwDMD2ANw6Ie+KpSzB7AH5DxAMgAqD+D1AXhZAPStFwRIHwx8fYAKAJ4ZwB4AcR93rBmg+iB7QJweIBsAqQfguiDIDBPmhLkuKEAPKAGAZwawB+DQD31VKGcPYA/oxTphvDIgTQPw+gCyiaBgPaAcAJ4ZwB4AcR93rBmg+iB7QGweoDYAbx6AcgNkOWH2gKA8oBIAnhnAHoBDP/RVoZw9gD2g1+uEYRYoFQIyBnBdUDgMqAOAZwawB0Dcxx1rBqg+yB4QmweIbHDxmvgBbs7nCSMD4LogsumgoOqCNADgmQHsATj0Q18VytkD2ANydUFe1wlLBsAeIJX3WN8GlQ/QA4BnBrAHQNzHHWsGqD7IHhC/B2QZAiIPKBgAe0BsHqANAM8MYA/AoR/6qlDOHsAeoPAAaZWA+1wQrw+ANQG4Yz3wlz4YiAcMLY5MJhuCarbO6TG8b+jSxLSyXZmctm0zEPSljjUDVB9kD4jZAzID8FYXBPNCvD5ACugut33MCXcAEAwD2AOk6C9uVaGcPYA9IOcBkgFQrRPm9QF4+A99l3CPP9t3D0gBEAwDOB9AywAVPNgD4vQA2QC8eQDKDZDVhvL6gL54AAJAMAxgD6BlwMrU7HJrBl+XW2QMWJ2eW5maFddOZ3Z1Gtrc6jRBW5uZq2wH12bM26wBA9Y6b16fbVe1ufa6Q9uYa6dtfmMubQdzY3xc81PsKw3AhwfALBDXBeGxvEu/jx6QB0AwDGAPoGUAe4ACEiYMWJ9rr80erALArBkANg7Or8+1c1dnBqgNwIMHIAPguqBm1wUVABAMA9gDaBmADUD02QPE0N7oSsiAojGkEtDOJGBOVwIqDIDWAyQDYA9wGfvjz/bFA1QACIYB7AG0DGAPGAQPECQoXhM/wM1hnXDBANgDmuoBQ4sjE0klaLFpFoby+oCSklCoE7UoDF1uzXQ+RV8byh7gyIBG5AMqMgTuDOD1AVALhDt4LO/S77EHCAAEzQD2APYAnEyuTAj3oja0EfkAtQF4yAeIGSGYF+L1AS7RX/psD+qCAABBM4DzAbQMYA8YNA+QMgTuHsDrA/DwH/pSBLe+7ZkHYAAEzQD2AFoGcD7AkQGN8wC5RogoH1AwAM4HNCkfIAEgaAawB9AygD3AkQENygdIBkBbF5QWAiWhHxrhXBCfH+BvLqgIgKAZwB5AywD2AEcGNMgDZAPwkA8oVAfxOmEyG/DEgKGFpAqo2LguaGppPG0TU0v1Tb09HNQC4Q7XBXVWCxMsEl6drl4k3IuccCM8QGkAtB4AeWCQgA4PyBjAHuCDAQkAGscA9gD2AK4LShaLmewVoTYAUg8oGADnA8gMQOSTyRnQBUDjGMD5AFoGcD7AcS4ocA+oMAAqD+D1AVALhDvWhUDSBz3VBWUAaBwD2ANoGcD5AEcGNCgfIHiAr4TrhHFdEMwLEeaEed9QQg/IAaBxDLDwgEuf/dzKsZN/+s731n9wTr9tPH7OX/vL2XP+2ubZJ3rcts49GX679sST2u2pa0+QtiefuubQrj/5lEP78fWnKNvNp35M1P755lOo/fifb+q17X/6Z6f2z/+f+PjVs+euPfCNa4ePXjt89PoRx3YMG4DoS8N561tyD5AB0DgGGHnAyr3377zz7m3+j78B/gb4G5C+gb29WwuLNx/6X52QHS4DAB4kHqAAQOMYoOkBf/rO927f2pX+T+db/gb4G+BvIPsGbu0mNjAwHqAGQOMYUOsBH3zpy7e3d7L/m7nH3wB/A/wNKL+B7Z1rD3zDeSLoaHEi6PoR4qKgm0ePOXpAKQAax4BqD7jx6mvK/6/5IX8D/A3wNyB9Azd//ZsByQdUAaBxDCj1gNYsD/+lX3G+5W+Av4HSb2B7Z/v48fAZ4J4PqAFA4xhQ9ICl8alk/of/42+AvwH+BrS/ASgKijsfUA+AxjGg6AHLp89o///Ob+RvgL8B/gZud8qBkqrQuD1ACwCNY0DOA8anGAD8D5q/Af4GjL6Bmw/9L4j+4TPAen2ALgAaxwDsASv33m/0/z2/mb8B/gYG/BsoAiDwuSC7fIABABrHAPAANoAB/8fMf33+Bky/ASUAAmeAhQcMLQwnu4Hqt2btHS08gA3A9Lef38/fwIB/A2UACJwBph7QAUDUDLg01mIDGPB/zPzX52/A9BuoAEDgDDDygBQAUTNA0wC23/zd+mNnk2ayTxx+s78N4zYe97hh3F/OnuvxhnGbZ58If8O4rXP6G8Y9Sbxh3BNOG8Zdc9ow7qnrT1JuGHedbMO4H+c2jHtKd8O4mz/ObRi3c3FBBwbVAAicAfoegAAQLwM0DeDa8y9cHm+lberyuKItTSQPi1d4c1DniKVHj80oN46+Mjmj2gLa+uHscitpK1PErXN82Gx65XPE2utzWm1jrp22+eT0GNEMz5ApO3Nmk+hMeXx8GPS97h396b+/QgKAwBmg6QF5AETKACsAtCCmm3YGigH4JBkBAEIGrE7PCZyk0V9gIBIG8PkBIuL3+PwAQgAEzgAdDygAIDoGXB7XzQHkDUCogEICKnggzCBRBGj1hwlP4eOCa/vpoH5av7Pcmum8mT1AJsfaTPWRwgcVR8TM1D2cPShOB9O/rs+2q5reeL9MC1IJaGcSYH6WpOQBcL6YDw/wcYYMPk+YFgCBM6DWA1QAiI4BtgZgwwDAQ1AMSGnhiwHsATlUmDCgoR6QnTBMNBeEPQCdLUx2pjycI2YCgCPSWrCyW+etQz2eIVPtASUAiIsBBgAYgxwA7rAHmCYGOB8QsweAAVCdJwyz/xD64QlhPkB4gCEAYmBAhQeUAyAiBpgBgIIB7AGcD9CfAlqbPdg4D8gMoH2Y/DxhwECqBZQeYA6AGBhQ5gGVAIiFAcYAoGAA5wPIGQD1RVHmhAUwqpIBs1rFP2XJgPWsKMg1HyAZAK0HQA4AJKDDAzIGfPrv/65dBXTk2mFo2cZwZRNBTcwH1AEgCgbYAICCAewB5AzguqCK+F58aePgfBL38TXDQFoYapgThugvOrkrUT6gYABHCBlgC4A4PUADAM1ngCUAKBjAHkDOAPaAYqA3euJeFwQMkKqDSOaCtuYP47E/7pPkAxwAEAMDpHyAHgAazgB7AFAwgD2AnAHsAWYRHxuA6Dt7gJwDEJkAD/mANA2QSACJB7gBIAYG4HyANgCazAB9AFwaa10utmx5MJQGcV0Q1wXVLQiQVgyY1IYGng+oMADafEB++E/DAGcAxMAA8IChheHxZENQzdbMfUONAOCJAewB7AFx1wXhZADJXFA65BcJAIj+4tY+J0wBgBgYIDxAACByBpgCwBMDOB9AzgDOBxjNBRXf7J4PUKQBOhNBhAzAJAAnsM4HEAEgEgYAAGJmgBEAxBECnhjAHkDOAM4HFMN6xZNcRRBRPgCP/WF2qPuQqC4IakNxSsCOAXQAiIEBGADRMkATAFvP/yscIiY6nA+AbUR539CSjYMMMwEiMRBRPqDCAGjzAcAAkAC7nDApABrPAAkAcTLAFAD4PGEfDGAPYA+IOx8g1wgReQDJ+gB9AGzNwyqw6k6D14gVARAhA0wBwB4AA3+pwx7AHlAc8ktPYBYIP3ffN5RqfYA+ANAy4GoANNgDlACIjQF2AGAPkKK/uHVkAO8bOgj7hsoGENL6AE0AXP+fD5kAoKkMKANAVAywAwB7gBIAfI5YiQTM5SK7tAig4ja6fIDSAGjzAfk0AFSIatWG6gNAewoI/KB5c0EVAIiHAS4AYA9QYoA9oAQD3nPCjdg3VG0A3jwA5QbqGWAEgOgZUA2ASBjgAgD2ACUA2ANKAMAeMF9hAD48QKoOqq0N1QcAPkfMZDqoSR5QC4AYGOAOAPYAJQbYA0owwB4wXyEByUu4tec3k1a6B1zFSxD99dcH6AMADhGL2AN0ANB4BrgDYNA8YPnQkeVDRz6cnuPzhFen5ZOExZOS0A+HDHtnQOD7BeESINwHPyBnAOZEhQeYAiBuD9AEQLMZQAWAaDxguTW7evrMRw9/9+Mf/eQ/nn3+5q9/s3vp/d3V1b3rN27f2pWOy9i7fmNva+vWBx9uv/m7ay+/8vHPf7H56A/XHvzmyt/+ndAC9oASGHhnQCPyASLi42smB0QegHIA2cZBZQwwBUDcHqAPgAYzgAoAjfaAlWMnNx559Oqvntt5593b2ztSlNe93dvL3rm3d+uDD2+8+trHP/rJ+v0PdNZ2mW4Rqnw/nyfM5wkbTAeZrg+wA0CsHjB08cB4Z0NQzWsj9w2lBUCTPGByZvXMVz/++S92Li7cxrE7i+Jkvb2trRuvvrZ59omVYyeXJ6dNtYDXB+SqSE1qQxvnAZkBeKsLQrkBuS7IDgCxekACgOgZQAuA8D3gSifuX3v+hWRKp/f/7e1tX3hz89EfXpltm2IAvZ89IE4PgBxALjFANxcEmYAyBrgAID4P6AIgbgb4AECYHrB86MjHP/rJrQ8+7H3YL/4v7l2/cf38S+tfeQCFdeWcT/aQPWAQPEA2AG8egHIDmQe4ACA+DxBTQBNxe4APAITmAcuHjmz98mn7yf1i/KZ7svPOux89/F19DKB3sgfE5gFKA+jl+gB3AMTkAZkBRMwAfwAIwQNWjp28ev7FMEM/hsjOxQVNDLAHxO0BagPw4AHIALJzxNwBEJMHZABYGI7WA/wBoM8e8IX25k9/Fn7oxxjYfvN3q/fej8b42fxP+UP2gHg8oMIAaD0AcgCQFejw4DAVAOLwgAwAwgCi9ADfAOiLB/zxWw/vrq7i2NqY/t7efzz7/Mrf/l15xE+owB4QtwfglQG4n/gBbg7rhAsGkHgAFQDi8AAZAFF6gAEARielQb3FrY8zZPB5wsuHjnzy+oXGhPuSP+je1tbaQ9+uZkD+VfaAeDwAlwDhPviBOwPK1gdsv/zMqfN1AAAgAElEQVTvJb+SucfX/+dDOMSX9ZvuATIAovQAMwDYMqA3HrD24Df/+tFG7le1uTd7e9dfeKlaBdgDBs0DsgwBkQfktwk6QgsADAaTDeNCOT9ADYDIPMAYALYMwLpA7gFLrZmkzsfzeq7e0+TTxcXV02fyg/2KxAB7QMweAAZAmw/AaQAfAGiuB6gBEJkHfHjq73XiWnIo/Ohk1sZaOKBr9j15wJXZ9vaFN3X+Fvbv2d7ZXVn9dHFx5+LC9oU3ty+8ufPOuzsLi7c++HBva8v+x2p8cu/6jbUHv1mxmQR7wOB4QGYAHuqCtuY9GoCwgWZ5QBUAovEASwCE4QFLE1NLR0/uXnpfI5AavGVva+uT1y98/PNf/Ok731s989XlQ0eWJqahXZmcRm0m6c+2V0+fWXvo2x//6Cc3Xn0tWWtG6yK3djcf/SF7QC7QD9I5Yt0hfyfo46wAbU54s33YhwFA6IeOCQb6eX5AFQCi8QB7ANgygNADlk+fIZv039755PUL6+eeXD19Zml8amlCRPkZiPu4gwCAYZD1lw8d+ejh71598WWyYqS9vc2f/kwM9pUkYA/I4SHS/YJkA6D2ABMAHMZT/EZ9EwD0Mx9QD4AIPMAJALYMwFNGdvmApfGpD770ZYLo39mcZ+ORRz+cnsMhvrZfy4DOdtAJElZPn9n65dMEf9Tbtzd/+jNl9Fc95HxAbPkAKQeAVcC9LkhkAgwBYMyAZuUD6gEQgQe4AsCWAY4esHLspGNI/etHG0k8TaZ3plDLpnooGJA5wYfTcx89/N1ku2m3/7aeeJLzAbnBPtFcUCP2DVUbAJ0HmAPAmAHgCuF7gC4AGu0BBACwZYC1BywfOrK7Yr/Oa3dl9aNHz3aG/Dj0Q98XA4Q0rH/lgZu//o0LBTgfoAuAGWMJWJs9uD7brmpz7XWHtjHXTtv8xlzaDiaHRNa2CgMQn3X3ACsAGDOgKR6gC4BGe4A+ABbH7smqgHBFkOj3qi5oaXLGehy9t7X18Y9+Uh76e8SAK5PT6195YPvN31li4Nbuxtf+gT1AFwOR5gMED/DVPSdsCwBjBjTCA8wA0FAPMAKADwaYesDVf3nGJm7u7V17/oUrs/OdBC8E+oqOXw8QNrDxyKN2VaR//WgjOZq4VbEmAL/E+QBjFaiSgFknCVjPJKCdScBcvQFUKwL4gYsHOADAmAHhe4AZABrqAaYA8MEA/XzAH7/1sEWF5e7K6tqD37w8PpVEf9Fy8/5lGOgFA5YPHbl+/iULpG1feFMcTF+GAa4LyinCAHhAliGwXSfsBgBjBgTuATYAaJwHWADABwN0PGD50BHjY7z29m7++jdLX2hfHp8SLRwGLLc6awiSVQUzm4/+0GLj0o9/9JOy6K96zh4QsweAAbjkA5wBYMyAkD1g6OKBMTyuN+034jxhAwCMTi6O3QOt9/mAay+/YjZS7tTOL01MQ/QPjQGolnRm9d77TTPbe9dvJIcMV04EsQcMjgdkBmBbF6QJgGsPPrQ1n50jVugfgaG9USe0uiABABsGNMgDzADgmQFlHnDps59bv/8Bs8mfW7t/+s735NA/EZwHXOmcES+uy4eOfLq4aAS5G6++Vg2AwqvsAXF6gGQAdh6gDwBxfkAh9AMVzBgQpgcAAGwYALoQuAcYA8AzA5T5gKWJabOzfLd31h76thT9pdtw5oKEB3Qi9ezyoSM7FxeMGKCzcTR7wCB4gGwA5h5gBABaBoArhOMBGAA2DGiEB+gC4Nnzi6OTWfM5FyR5wKWx1sYjjxrExL296uiPzw8ILSd8ZXJm5W//zsgDdt55tzDMxyVAyj57QGweoDQAUw/QBwCcKVYuAY3PB0gAsGFA+B5gCYDeesDOgsHEyObZJ6TBfsVtaB7QsYGZlWMnjTYRql4WAHhgD4jbA9QGYOIB+gAQW0ekxwnAzE+xYzYXFJQHFAFgw4DAPcAeAJ4Z0PWAz35u7cFv6g//r/7quYpwj18K0wPS0qCZ1TNf1a8Luvnr30CUN+mwB8TjARUGoO8B+gAAA0hJUAz98MSMAeHkA5QAsGFAyB7gBICeMED/iMfdS+9fbs3iKK/ZD9MDPv7RT3TJt7fXKQea1Yn+7AFxe4AgQfGa+AFuqvOE9QGQxv3kJOFYPWDovf1jnUrQ4nUcYrpmJ1gPcAWATwYkS7e+0L59a1crDt7aXT59RjPiw9tC9oDl1qz+pheGawJwYoA9IB4PEIP94hX8oJoB+gCQDCDlAYz6i53meUACAEIGACqCqgsiAIBPBqx9/3Gt6H/7djr504LgbtoJ0ANWT5/RLH7dubigM/yH97AHDJoHZBmCcg/QB0Aa8bEBiH4x9MMTMwb0PR/QBQAhAwL0ABoAeGOA7saZ2zvLh45cHm+lrVvvr8mAkD3gxquvaSGwOwuEh/ZGffaAmD0ADKA6H6APgK35w4IBxWs0dUFiCmg8bg8gA4AHBlyenNZMhF79l2cuffZzafQXGDBjAKAiNA/Ql4DNs0/AAF+zwx4wOB6QGUB5XZA+ACDupwmATAWiWR+QGQAtA4LyAEoAUDNg+fQZrcHv7dsfnvr7fPS3YUCgHjA5rZkJuH7+Jc24X/429oA4PUAygDIPsAAAkEB0IDcQgQdkBnDxQLQeQAwAUgZoJgB2Li50z5XMpoAs54LC9ICNx8/pgNA0DQAYYA8YBA+QDUDlAdYAwB4QTV2QbABRegA9AOgYcPVXz+kEvs2f/iw7WNiZAaF5QBKmDx3R+R5ub+9UbxANEb+uwx4QmwcoDaDoAdYAAA8AA0iFADLAxY5ZTrj36wO6ABDDf5AAwpxwCHVBBgAYQVtB4G0hlH2KvSK2L7ypE/iSvf7HWllzZkB4HjCjuTB49fSZ7r5ylVuEKgHAHhC3B6gNIO8BjgCA6I+FgHAuqMd1QQoDAAxEsz7ADAC9ZYDmDhDJdv8YAGMw/4M7Zjnh0DxAsxboz/d9TRncrR6yB8TjARUGgD3AEQAw+QNC0GgPyAEAQr+YCIrGA4wB0EMG6OyPv3f9xiUp+ovbuDxg65dPa8nQQ9+2ivVZwSh7QNweIEhQvCZ+cHDeHQBpxM+KglIbKE4BwROzuaCeeUAOAGkCIMkGAwwi8AAbAPSKATrnf+2urIpdg2QJiMoDZjS3hdh45NErk1k0d4RB5+PsAfF4gBjsF6/gB+4AiGl9gAIAMPyHDhUD+pUPsARATxigswh299L7iQGMT8XtAZtnn9AxgI3Hz12ZnHFnAHvAoHmAyBC4AwAmf9KBf6YCjVsfoACAGPvjK+FcUF/WB9gDwD8DdACws7AonR8gq4DzXFAI+YC/nNWqBP3L2S4A3BmQtwf2gJg9gNAAAABSB+WHYean2DGbC/JdF6QAAAz8pU5zPcAJAJ4ZoA8A5TliGQmcGdD3uiALALgzgD1gcDyA3ACKyQBIETelLqgUANgAmp4PMAHAxOLIpKIpy0CVDw1rQ/UBgCXA01xQfz3ADgDuDGAPsGbA2mwiDeuz7ao21153aBtz7bTNb8yl7eB8cZa/+kkvDSAFQ3H4D09C8YBSAEjDf7htogcYAqCnDDAFQMQeYA0AdwawB1gzYH2uTcuAjYPz63Pt3NWZARD9N9uHCXMAeAoIzf9kKYHwPaAGAHF4gDkAescAUwBE7AEuAHBnAHuANQMa4QHAAE8AgMkfTAXanLCPfEANAGDgL3Wa5QFWAOgRA+wAEKUHOALAnQHsAdYMaIQHeMoBFCI+NgDRh5mfYsdsLoh8fYAWAJruAUsn/7tOfeHWs+cXRybyzXs+wA4AUXqAOwDcGcAeYM2AwD2gJwbQvPMDtAAgDf/htike4AAA7x7gAoDIPMAEANNiKYDymg/ixkvG2AOsGdAIDzCZApqXRveatw1aH2AAgKZ6wMiEPgAWZAMQQuDRA1wAEJkHGALAIwPyCOH1AVGtDzAEgCUDMCpQfrg4BQRPzOaCqPIBBgCAgb/UCd8DjADQYwa4AyAaDzAHgEcGsAfE6gEGADg4v9kWrXRuBwd6qY89AFLEodUFGQOgiR5gCoBeMsAdANF4gCkAllszVyY9MoA9wJoBIecDzADgxgCBBDCA9BZG/cVOrz3AGADS8B9uQ/YACwD0jAFUAIjAAzQPBetsBTHdCf1wTbYGUrZ8EOd8wNzajGgHc8F9Ru+2s+xLBPfaa7D5AGMAuDEAoj8WgnA8wBIAzfIAOwD0hgFUAIjAA+wAwB6wOj2nbGmsh6AvdfSCvsQGEwaE6QE2ACBiAJ4jImSASz7AEgAw8Jc6YXqANQB6wABaADTaA+wAgFRALQHutaGcD8jpggkDAvQAfQCI8wM2O6cIJFeHfADKAeBVAsUpIHhiNhdkvT7ACQBN8QAXAPhmAC0AGu0BLgBgD1BKwOq0NOov3g6cBxgBgIQBIZ8fMPTe/lFpFO9+G5oHOALAKwN8AKChHuACAPaAMgCEwICgPMAIAGL5WCYBbh6QTwMkKkC7V4SFBwz9/u5RRwaE7wHuAPDHAB8AaKgHuAOAPaAMA5wPgL1CjQAAn6JiQD4NQM8A03xAAgB3BiilIRwPIAGAJwb4A0DjPMAdAOwBZQBgD4BQbgSArgG0D5PMBaVD/iwNgHIDMPtf7HjMB3QB4M6AkD2ACgA+GOAPAI3zACoA9MsDVk+f2Tz7RG3bOvdk+O3aE0+Klkv/ShVB4tYkJ1ysC7r2xFNye/Kpa6hdf/KpjUce1T9RID08oJ0dHjCXOzzACACADdGh9QCoEE3BUAz98MSMAfoeIKaAxuL2AEIAkDNAFwCjk1JA17xtkAdQAaBfHqB5prHOvoThvKceADNmG0VI+QCdv+nu4qWN8iNlcicHiLMEKs8PMAJAzgA8eAAyAKEFEPGLHTMGaOYDMgMgYUCYHkALAFoGGADAlgEYFdkRkmOtbt/5LEmqc8RoAdB7DxhcABgyAHuAJgD0DUC8s8IDjAAgGQCtB0gG0BcPyAzgvf3RegA5AAgZYAYAWwY0wgNoAdB7DxhoABgyADyACgD6HmAEAIUBkHpAwQB67QGyAUTpAZoA2Hz2/MLIhH7LnxxguW+oMQBsGRC+B/gAQC89YNABYMgA4QFUAFAqgtIDjACgNAAqDwhhfYBsAFF6gAEAhg0AQOIBNgCwZUDgHuADAL30AAZAkjAwyQmvz7VpAaDjAZoAuPqN/9EN9GLIX7h6qguCeSHCvSIq8gFqA4jMA8wA0FsGWALAlgEhe4AmADYeP4fCOuwHV9XpjQcwALoZYxMG0AJAxwNMAaCUADE1RMiAfq0PUBtAZB5gDIAeMsAeALYMCNYD/AEAAcPjfkEMgKxkSJsBPgBQ7QF2ACgmA5LoT5oPwOuEUW6gWA4ETwjqgqoMIBoPsAFArxjgBABbBoTpAfoAWJqoGu+jcJ97m28PiBQAc1lYV64DKHuoxwBdAMy2laN7/YeQD7ADgOQBYABU+QClAfSgLigDgBj1F6/ua8T6vk7YEgA9YYAOALYXFi6NTpa2sRYO6Jr9AD3ACAB2DEjZ4MUD4gWARwYYAMCQAWUe4AIA7AGZAXjwAGQAfuuCMgCI8X7ZtdH7BdkDwD8DNAGwOHZPKQBi8QBTANgxwJ8HRA0AXwwwA4AhA4p+sDHXdgEAeIBkALQeAHngvBbAzE+xYzYXhNcJywAoGkAE+QAnAHhmgM4/gO2FhcWxe3wwICgPsACAHQM8eUDsAPDCAJ3f/93FS+uz7ayVrwpWRHyxNhhd3QEA0R8LQbcPhwe47RtaMABfHiADoMwAGp0PcAWATwbo/AMAAPhgAJ4y6u86YTsA2DHAhwcMAADoGaDz+y8DwM0D3AEAkz8gBLjjvl9QL9cHqAEQmQcQAMAbA/SngIQE+GBAIB5gDQA7BpB7gOZmcLW7xYk3BLJhnGofacozZOSd4Ip7wz2RbAaX7AWEJcCQATgfQAKA7pxPYXEArQfguiCYF6JdH6AGQGQeQAMAPwzQGQElBjA6CQDwwYAQPMAFAHYM8OEB5cfQzy63krYyRdxWp2dRU58PXLFNtPIlVdzHp4lRMqBi7ZgI+oroL2BgMhcEs0MkAIBZIDz2x313D8AJgLQcKJkI6swOFdMA8MQsH1AFgGg8gAwAHhhgAADPDOi7BzgCwI4B5B4gAYDPE85VkerVhnZ3i5trr80elAf+zh5AAgCI9Yo0QEcLCNeIYQ9AuQGI+MWOAQOqABCNB1ACgJoBZgDwzID+eoA7AOwYwB6glIAQzpDpkkAK+tKtoQfQAgBIgDvgB7QeALNAhB5QD4AIPIAYAKQMMAaAZwb00QNIAGDHAPaAYBkA+4ZWqYAJA3wAoOgBkCimYgBEfywE7vmAegBE4AH0AKBjgA0APDOgXx5ABQA7BrAHBMsAWg/wAQA8/IfQDw/JGYDTA44M0AVAoz3ABADjC8MTuo1i72hLAHhmQF88gBAAdgxgDwiWAYQesP1vL+v8o0t2A82fJQkBvayDPQAw0H0Y6voAXQA01wMuHhg3BEBPGaDzu9itAhqdTGqBcOusDvO0Rqz3HkALADsGsAcEywAqDzADgCEDBBsgB4BR4e4BPtYHmAGgoR5gDoDeMcAJAHF5ADkA7BjAHhAsA0g8wBgAhgyA6I+FgNYD8mkAp9pQMwA01AOsANAjBrgCwDMDeukBPgBgxwD2gGAZ4O4BNgCwZQA2gK4c0M0FQSYA5YeLJaHwRF0bagOAxnmALQB6wQACAHhmQM/yASYAmFqamNZv6aA+tzu03kMv+4Yut2Z4fUC/1geYAKCdpAGgHZwvBvSKJwoD8LBvKIr+NvsF2QCgcR7gAADvDKABgGcG9MYD1n9wTufb2Hj83NLEVKf5ZQB7QJQeYAgAGwbALFAZHtzzATD8h6Vh8MSoLsgeAA3yADcA+GWATsgrTQLjhLBnBvTAA8wBwB5QtavE6vSc2HYCbRQxWxbTTZ/3fa8I63yAJgA2H3gQzpDJJMBqLqioAuTrhAEDaXoAZn6Kndxc0NDv7xqtHtHbvRrU+QHOANBmwMjE0tGTH//8F5+8fmHn4oJO0wHA7e2d7YUF303nT2v/nnfe/eT1C6JtX3jzk9cvFK+3PvhQ59u49cGH2xferG2fvH7h+vmX1h769pXJTBT0pn1yM0XsAWVs6DsD7PIBmgC4+o3/sT7XdmdAUQLAD6g8AGaBQAL09wvqAMCBAY3wAAoA1DNgcXRy65dP6+zuqRPm+D1U38DOxYWVYycBAxYMSD/C+QB5p7m+M8DCAzQBkBiAOEUgw4BlPkBtAKT5gIIB6OYDUgA4MKBCEQLxACIA1DDg2suvUMUs/jm038BfP9pYOXYSksZpQM+N9KsfsgdE4wH6AIANRGk9AAxAyIG7B7isD0AAcGBA4B5AB4BSBvzxWw/Txiz+abTfwPaFNwEAdrWhKSHYA5rtAfoAwKcIuDMAe4CndcJpAkAM/7XWB+QB4MCAkD2AFAAqBoxM7LzzLm3A4p9G/g2snvmqIwPYAyLwAH0AgAGIjjsDukP+dL9onB5w9wCcABB9yA1U1AUNvX3XSJIHxu1uy7RwsB5ADQCZAZc++znyaMU/kPwb2Pzpz67kVw+kg3qDuaD0I+wBTfUAfQDkDIA0HyAbAGk+AHsAyg0Uy4GSJwkACBkQpgfoAuCZ5xeGx7Vbtmfc5aMnyaMV/0Dyb+A/nn0eG4DopwHdgAHsAY32AH0ASAZA5QFSDsCfB4ABpEKgYEAXAIQMCNAD9AFw8YA+ADIPYACQB2sfP/Da8y8UAcD5gHSVgDyiL4vy1c/DrwvSB8DG3HxSCSrG/vjqXBekNgAPHoAMQF0XlAGAkAGheYAmALaePX/xwLgFAxgAPuI1+c8sA4AdA9gDykjQdwZUrw/QB4DSANw9oMIAqOqC0iF/Nw+M0wNSPiAHAEIGBOUBmgDYfOZ5AQBTBjAAyIO1jx9YAQA7BqTTR5wPkO2h7wyoWB+gDwBhAN2Ijw2ANB+Aq4OADYQ5YZwSSPvZXJAMAEIGhOMBRgBYGJ4w9QAGgI94Tf4zqwFgxwD2gMZ5gD4AKgzA3QPw1D/uEzJAZ32AAgCEDAjEA4wAABKg7wEMAPJg7eMH1gLAjgHsAcEyQOkB+gDABtBLD8gyBER7R6cDf8X6ADUACBkQggdcPvHfdAJKfgrIwAMYADpfb9/fowMAOwawBwTLgGI+QB8AtQbgwwPAAGjzAfk0QLZGrBQAhAzouwdYAMDIAzQBcPXFl7PThinOE14cmcw1aXPQitsAzpJc+kK72K7Mzlu0tQe/qUMXTQDYMeDK5PRfzmptZ63zR6V9z6eLi2Jb0LKr476h6/c/QPsHln7ap4uLucMDZg6KsK55lTxAHwBFA+iNB2QG4KEuCGpDRacKAIQM6K8HWANAMx9gA4DhiYVIGYA3jr401rpcbOOty3Kbujxu05bGp5bGp1buvV8KGcpbfQDYMaC5AMBgSKtCZzsdOburHOn3AQCGDMAeoA8ATQOg9QDJAHx4ADBgs50uBBPLwZTX3CJhh70i+ugB1gDQ9ABLAMTLADhApgsDzwzwAQALBjQdANYe0B8AGDIAPIAKAD7WB0D0F53clTQfAOsDagwgjnXCjgCo9QB7AMTLABH6MxJ4YMDSRFcaTADg8QyZpgPA2gP6BgBDBggPoAKA0g/c9wsCBuDSIFoPMDMAWgb0xQMcAVDrAU4AiJcByfzP+FR29cAAMXFkCABfDIgDABYe0E8AGDJgfa5NCwAfHiDnAEQmgDQfYGYAtAzofT6ABAAVHuAKgKgZABLgLx9gDgAvDIgDABYe0GcAGDKAFgDkHlBhAFQegNcHaE0BQW6gofkAEgBUeAABAKJmgG8PsAIAPQNiAoCRB/QfACYM8AEAHx6QSwAgCUj8ALf2/GbSDlu0rfkjZgBoaF0QIQCUHkADgKgZ4NUDbAFAzICYAGDkAUEAQJsBN196WVkkJj3cfOBB5ehe/6F7PkCRBuiQgJABxgAgZEDP8gGEAFB6ABkAomaAPw9wAAAlA+IDgKYHhAIAPQYYAGC2rR/uPe0bWvSALENA4QE2ACBkQG/yAeQAkDyAEgBRM8CTB7gBgIwB8QFA0wMCAoAGA8wAYMiAIjBoPUDKELjPBVkCgJABPfAAcgBIHkAMgKgZ4MMDnAFAw4BYAVDrAWEBoI4BxgAwZIDvfEBmABR1QfYAIGSAbw/wBADwAHoARM0Acg+gAAABA2IFQK0HBAeASgbYAMCQAf48QDIA97ogJwAQMsCrB3gCAHiACQCyc8SyfYGGs9Mlcw8j3SsiWxkgVgk4rw8gAoArAz56+Ls7C4su7dPFRR/txquvrbRmcBy36Fd5wL3331pYLDaqv8uNV1+T9wKaOVj/ZFa9ZZAlAAwZ4M8DZANw8wBXABAywJ8HBAYAZkALS4D7+gA6ALgyIN0auvaEYV9nyCy3ZlCbXW4lzSLcV3/EYr8g5SZC4uHazMHV6bmenSFjDwBDBvjwAKUBuHjA0Nt3JofCO7bA1weYAGAMxvX6HUMDEMcOl4z6izbAHpDtHKfeMI4UAI1nwMrU7HJnvN8hATEDqjxgWmvnuEoSVGNAY9RfNIOCBzgBwJABPjxAbQC2HtABQEgM8OEBhgAwZoAVANgDyDxAFwDPnU92D53QadPK4+OVD7VH/ZkW8PkBZRjogQe4AsCQAbQeUGEAdh6QAiAkBpDnA8wBYMYAWwAwAxIGuNcFmQEgDAak2PA1F8QekEsSIA8gAIAhA3x4gCBB8Zr4AW5164QRAEJiAK0HWAHAgAEOAGAGEHiAMQDCYAB7QF88gAYAhgyg9YDiCuHu8N98nXAeACExgNADbAGgywA3ADADXD1AHwCXOwfIiGNkQpgLYg/oPQP0AbA2e3B9tl3V5gyWCvfGA7IMgZ4HFAAQEgOoPMABAFoMcAZAAAwYu2f59Jn1c09uPXv+k9cv7Lzz7s7FhU9ev3Dt5Vc2f/qzP37r4cut2cXRyUW6sySvvfzKzsUFknbrgw+ljVyUt9eeOy+2j+4CgD1giqxAiLYuSFDBUz7ACAC0DPDtAVKGQGcuSAWAkBhA4gFuAKhnAAUA+saAD7705av/8sze1pYyaGYP9/Y+ef3Cn77zvUuf/Rxg4NLoZGkbk+d2pNLPnYsL2Q/vSQ8AwB5AWBvauLogIwDAOWJN8YDMAPTqgkoAEBID3D3g/eOndSLM5jPPv7d/7OIBZRuvqAolAkCvGfDBl75889e/ub23p/PlwHt2V1ZXH3ns0lhLYKAUAKOTUsSXbvsFADhHjD2gutjf4tVGeIARAODc+SoABJMPkAxApy6oHAAhMcDRA4wAYMEAOgD0iAGXxlof//wXt2/tQlg37ey88+7S0ZMuDOgXAPDp80ExgPMBvckHWACgQR4gG0CdB1QCICQGuHiAKQBMGUAKAO8MeP/QF3feedc04hffv3f9xh+/9bA1A/oLAPYAsUiYcC4IjCFwD7AAQFM8QGkA1R5QB4CQGGDtAUYAuHhg/L39Y0YMoAaARwYsHT25u7JajOaWT/b21n9wzo4B/QUAe8DArhO2BkAjPEBtAOUeoAGAkBhg5wFGABDR34gBugA4/+LCsNgHQudKv1fE+4e+SBn9BTT29ta+/7gFA7YXep0E3nq2WwUE0Z89YAA9wBoA4XtAhQGUecDQW3cOJ9sB1bYm7xdkBABhAEYeoA+Aiwd0Qj+8h5IBlz77uU8XFy1H+tUf29tbvu/rIi2snxPuPQBwFRAwADqcD4A5HMdO4HVBjgBohAcIEhSviR/g1p5PANA4Bph6gBEAsAFoeoARAPrFgM1nnq8O4y6v/vWjjaUvtI08IBwAsAcMlAc4AiB8DxCD/eIV/AAzoAuAxjHAKB9gCgBJAmrzAaYA6D0Dlu/7umm5pykPrp5/UQBgceweHQ/oPQCKU0Aw/IcOe4Dj8B8+HqwHkACgoR6QZQhSD8gA0Nx32IwAACAASURBVDgG6HuAKQCwBOjMBRkBAM4R61k+YHFkshfRdm/vw1N/r8+AXvyR8hCrmQKa6O41HRQDeL8g8tpQEgA00QPAAHA+IAeAxjFA0wPsAAChH3hQtkbMCAB4QVlvGLD24DfzkdDX3Y1XXwMA1HpA7wGgYwBCBYJiAK8PoGUAIQAa5wGZAaR1QTIAGscAHQ+wA0CaAEiqQgEGSgZcOnZKJ6ZePf8iRP9eekCy3Lc3/+3tvX/oi5oMCBMAnA+IPh9ACIBmeYBkAMIDFABoHANqPcAFADD8h06RAdYGIHjg1QOWvtA2mP3f27v64svL93196QvtS5/93NLRk2tP/PivH23o4+PP//ufLpHuGSdtICHdXu6cJ6y5G6i+AbAHCAzAhL5jJ6h8ADkAGuQBsgG0D6sB0DgGVHuACwBwQrjMA6wB0AMP+NN3vqcZvv/60cbKvfcvjkwku36OTi6OdNvl1qy+Q3zy+oXux+n2DZWDvjhKvnMV5wmTA4A9IGIPIAdAUzzAwACaWBta4QEuAICBv9TBHmANAJgR8lcXtPnseS0AbO98eOrvF0YmEgBkLcXAaGv7wpuaPyfZLlQgxBsDAAniNDFyAEBREO8bSrhXRCAeoAmAja/9A0R2nU4jPMDAAJrIgDIPcAdAtQc4AsCrB2y/+TudwP3xz39RiP6CBF0GLB09qbl5XLJJnACAz7kgEfoFCTwBgD0gSg8wAMDMQZ3QL70n2H1DjQ2giQwoesDv7x51B4A0/Idb4QGOAPDqAVoz+J3k7cLIRDUDPnn9gg5Llh/6dpIGgObTA4wM4OqvnsNDe6M+1wU5pgHg4333ADMAGDKgER4gSCCupTkAEf2byICiB1ABoMwDSADgxwPGb2/v1Ebt3dVVEf0rGLAwMrH505/V/qjbt2//6Tvfy6J/T+aCNA2gA4DkDHqjxh4QmQcYA8CQAUIIgvUAaYWwFgAalxPGHuDVAIQKkADAkwfozNvsXnq/M/afBAygNACkBCbXf3BOBwDJcTEw/IeOTw8wAcDU5XFjBgAwqj1g/f4Hrp5/Ebfr519qRnvhpevU7eYL/ya1zUd/GIIH2ADAkAEN8gBdADSOAdgDqAxAhPuiBxACgNgDRiZ0poD2trYg9EOnyIDkDBmN/5Yf+rZsAJ49INnoQuO/1ABaFgzQ8IDpjce1AKnxJ43zLTdf+DcAAO70+PwASwAYMqApHmAAgMYxQHhADwzAYiEYHu+X9UnWB+xeel8nnHzwpS9D6IeOxIBkB3+N8yOX7/u6GgDecsLmBmDDgFoPYABU/6YVAdCXfIA9AAwZ0AgPMANA4xggPIDWAIoeQA4AMg8YmdDM3F598WWI+7gDDNAcZd++fTtZDAwzP8UO9VzQ5fGWCQBE6IcrZT6AAWAKgL54gBMADBkQvgcMvbUv2Q7aqNUfHhDYGTI+AACFQO/tHyMHAHYCRw/QzNze3tv747cexqEf+osjE0tfaN/64MPqf97i1d3V1eRggGLcx0+oGeAAAMp8AAOg+jekaAACAD32AFcAGDIgcA/oACB2BmgCYOOZ53FY1+mLfIAnABB4wMiE/sj99q3d5HzH0SwVLKpC3z9+WjP63759+9rLr9REf0ECUgYYAGAMxv64Q+MBDAA7APTYAwgAYMiAkD0gBUDUDPAHAAEJTwAg8YBLn/3c3vUb1f8y8au7l95fe+LHaw9+c/m+r//pO9+79vIryby/xtS/+CEr//ioogQID/+hT8cATcglSeDO3kGdJDAGAI0HMADwL1KxX2YAPfYAGgAYMiBYD0AAiJcBgQBg6/l/xTFds+/kASPJoZJbv3y6+K+x5ol2xMc/Z29rK9sHAgJ9RYeIAcYA8OMBDAD8y1DsX3/hJTzYr+h7rQsiA4AhA8L0gDwAImVASABIdpa2bnb5gKRK1SqgF/8NVz/5+Oe/6G4hVxH0pZcoGGADAAoGSHVBDIDqXw8dAPQgH0AJAEMGBOgBBQDEyIDAAGDDACcPGB5PZnI8/7e3tZXU/6R7iGplAgQMnBlgCQAKBuD1AQyA6l8xHQBgLfDkAcQAMGRAaB6gAkB0DDABwKhO7ld6j2YOoDMFNJZuI9pTD/jD59t7W1vV/z4dX00SyBD9RUca7FfcujHAHgAUDAAPYABU/wrpA8CrB9ADwJABQXlACQDiYoA+AH5/9+h7+40ZYAWAXnvA6iOPVf/7dHl15513k4PAJACMoC3hKqK/swfoA0CcH9BNBYuEMAUDhAdobpXh8j03+rP6APDqAV4AYMiAcDygHAARMcAIABYMsAWADQMgf2CRD9h4+jkfEWR3ZXXpC+1kzqcIgJ4wwAgAnhhweXyKAVD922UKAE8e4AsAhgwIxAMqARALAzQD9MYzz8MOQkYeoPnz81NA9nNB9vmAkQn9s72q/zHDq3vXb3zwpS93on/u/IAcDFTD/2svv7K9sEDSNJcpXP3Vc9lJMjD8h06ySZzUzNYHLB86snLv/RZt9d77V898NYT25/u+5tLWv/JAabv/gZVjJ/HQ3qhPmA/wCABDBoTgAXUAiIIBmgFaAAB2ENJngObPLwFATz1gcXRS94wwiPHlnb9+tJFE/+wEMQMG9P5QeAEAOElGngiimAuCfED1vqFLE1P5Nr00oduuTE5btOXWzJXJ0rbcmqFrs4GfJ+wXAIYM6LsHaACg+QzQDNDYAIQKaDJA8+dvPf+v7+2Hgb/UMc4J23vAcGdnf+fC0J133n3/0Berz5Cp8IB+AQAkwNNcEK4L6mJADvdS9Be3ugBYmrABQMoMegasTM0ut2bwNfDzA0wAMLc2c9CmzRofJdav8wP0ANBwBmgGaGwARh6g+fMFAAgZ4JAPGL984r8lu3va/be98+f//U+LY/fg/YJMPaCPABAS0L3CFBB05IkgmnXC+SF/VAxQ2UO4HmAIgF4woI8eoA2AJjNAM0AXDUDTAzR/PgCAkAEuHrAwMrHyyGOa+0ULUuxdv7H1y6fFwB+iv+gUADCRG/5DfjjNB/QRAFgCBsoDOhNB0z7mgrABiH6wHmAOgF4woF/5ABMANJYBmgG6aACaHqD589MpoHGxjCBdEOA6F+TgAclGEQsjE5oVop+8fuEPn29LcR/fGjGg7wBgD1CSQDWct84QhOgBN1/4Nx3v3fjaP6zNzKHmfS6oLx5gCIBmMkAzQJcZQK0HaP58bAC0DHDygOGJpZP/XeefxNaz53G4V/b1GdB3ALAHKAFwZdI63OcyAcF6gC0A4vQAcwA0kAGaAbrMAGo9QPPnYwMQ+0gTzgW5eAAhAPRzwoEAgD1AiYGIPcABAL1gQI89wAoATWOAZoCuNoAKD9D8+ZvPnpf2kAjEA2gBoMkA+xS0jq2o3oPXAUjDf7j1URsaZl3QwOYD3ADQCwb0Mh8w9Ma+A8mhYBatOeeIaQZoDAAx6i9eleuENX8+AAAfK0/LADsPIAeADgOCAgB7wOB4gDMAesGAnnlAAoDoGaAZoDEAxHi/7CqtD9D8+QAA7AHkc0EW+QBNAGxq5ABwYqA6HxAUAMAARIc9AHhgPRcUbF0QBQB6wYDeeEAXAHEzQDNAFwFQNABlPkDz50sAgNAPPOhXXZABADpVQzjKV/crGBAgANgDIO7jjjUDVB/sf10QEQB6wYAeeEAGgIgZoBmgiwAoMwApH6D58yUApJM/SVUowICKAUYeYAYAIgYECAD2ABz3cV8VyrWKhQL0AH0ArE7jMlBl33ttqG8PyAEgVgZoBuiNp59TRvxaD9D8+UoAwPAfOlQM0M8HGAOAiAHySrF0jVj9YTL58wNMdwOVAr10yx6AQz/0rRmg+mA/PcAIACEwwKsHyACIkgGaAboMAEoqwMP39o9q/nwlAHBCuF8eYAOAkBhACwCZB7BFBHSc94rguqA+rhM2BUAIDPDnAQoAxMcAzQBdDYAKD9D8+UoAwMBf6vTSAywBEAwDdAHwL89Iwb3ilj0Axv64oxrOa80FqT7YHw+wAEAIDPDkAWoARMYAzQBdDQAY8hc7mj+/AgD99QB7AITBAB8AkNjAdUGAAVUo12JAIPkAOwCEwAAfHlAKgJgYoBmgdQBQ9IDf3+00BSQN/KXb3niAEwACYIA/ALAHQNzHHWsGqD7Yaw+wBkAIDCD3gCoARMMAQgAUh/+EAOiXB7gCoN8M8AcA9gAc93FfFcqb4QGaAFi//4HV6bliQ9vDxVAXNPTGHclCsIpms0g4sL0iyAGAPYAQANLwH259e8AfPt9e/f7jtW35vq8nu4eWtZFkY1HNVrE+IFcapFcX5BsA7AE49EPfmgGqD/bOAxwBEJkHdAAQOwPIASB5gObP33zmeYjpFZ1+eUD5KfPlQV+CgTYAdPaK6JJAgwEGABidlAb1FrecD3BnQB/zAe4ACIEBVPmAFABRM0AzQOvkAHDoFx5gYAB6AChjg28PKAfAeOmoXwJAn+aCzABgywD2AIj7uKMazmvNBak+2AsPIAFACAwgyQcgAMTLAE8AABho/nxNAxAAYA/QnwsyBoAtA7AusAcABlShXIsBffEAKgCEwAB3D8gDIFIGaAZoUwPwCgD2gBwARiYrlgfbAMCWAewBEPdxx5oBqg/69QBCAITAAEcPKAAgRgYEAoAN8ykg9oAcBkryAZYAsGUAewAO/dBXhfIQPYAWACEwwMUDVACIjgHNBQB7QA4AJR6gCYCtXz59aXRSbmMtHNA1++wBEPdxx5oBqg/68gByAITAAGsPKAFAXAxY/H9OqU6Ikp8lU0B3jcLEjn5HFzDmBsD5ABkAKgY4AYA9YHL6inaL4BwxHwAIgQF2HlAOgIgYYAYAcwb4BgB7gIyB/FyQKwBsGcAegIf/0FcN57XmglQfJPaAlalZTwAIgQEWHlAJgFgYYAwAQwb0BgCcD8hhADGAAAC2DMBTRlwX5M4Ar3VBq9NzXgEQAgNMPaAOAFEwwAYAJgwwAcBo2XDe+jmvD9AHwOLYPXIOAGcFOB+gPReUzhrNQNCXOqrhfBAe4M8AxL4Rfd8rwsgDNADQfAZYAkCbAfoAUJ4pbxT62QOKHmAEAB8MYA+Qor+4tWaAVw/wDYBmeYAeABrOAH0AvH3XSJIHxu3u+rSwEQDcGaAExiB7gCkAfDCA8wG0DFDBgyYf0AMAhMAATQ/QBkCTGWAEAAsGmALAnQHsAdgDLADggwHsAbQM8OQBvQFACAzQyQeYAKCxDDAFgCkDjAAAOwi9t5/zAfW7h+rsG2oAgNHJxfx5wqUpAc4HRJoP6BkAQmBArQcYAqCZDLAAgBEDjACAlxc4MoA9QHiAGQA8M4A9IHAP6CUAQmBAtQeYA6CBDLADgD4DjAAgnSXgyADOByyOTBoDwDMDOB9AywDafECPARACAyo8wAoATWOANQA0GWAEAGwAou/IAPYAGwB4ZgB7AC0DCPMBJgCYLZ4IZvek77WhZR5gC4BGMcAFADoMMAIANgDOB2ieICbeVpYPsASAZwawB9AygMoDDAEQDwOUHuAAgOYwwBEAtQzQBMDOO++uPfFjH23lkcdWv/+4dF155LGytvrIY3L7/mOrVa3+wMjaEyXL3rD26ONu7ezHP/+FvK+T6n7rl08r9pT2mRNmD6BlAIkHmAMgHgYUPcANAA1hgDsAqhmgCQBVUOJnvfsG1ABgD5iYXqps6aJfgz3j0o+EuE74+gsv6fzOdQ6Fn12dhqY4IN5iOqjvc0GSBzgDoAkMIAFABQMYADr/ovr+nlIAeGYAe0BQHqAPgJUpiP6iEwkDsAdQACB4BlABoIwBDIC+B3edP0AVADwzgPMBtAxwyQcYASBWBoAHEAEgbAYQAkDJAAaATvzt+3tqAOCZAewBtAywzgfoA0DsHhorA4QHDF24Y/8bdxygafsOvFHe3to3bNPuHH7LpL1950ix0QKgyAAGQN+Du84foB4AnhnAHkDLADsP0AfAytQsNJQMiCcnvD7XTgAQPQPIASAxgAGgE3/7/h4tAHhmAHsALQMsPEAfAMIA4vaALgDiZoAPAGAGvH/oi32PbvwHqP0GNn/6M0UZKDpYJnvVZ20oewAtA0w9QB8AMPyHTnweMHThbxIDiNsDPAEgYcDdo8n1wMTe9Ru1AYjf0N9v4E/f+V4W4pVxHz/0yQD2AFoGGHmAKQDi9oAOAGJngD8AdD3g7tGrL77c3+jG/+s138D2zh8+3042j8NRvrrvkwHsAbQM0PcAUwDA8B86MXlACoCoGeAVAG/fNfL2XSPvH/oiS0BNCO7ryx//6CfZEQLVcR+/6pMB7AG0DND0ADsAxOoBCADxMsA3AMRE0NI3vsUM6GuQL/0fv/Hqa4ujrWTsP5I2HOWr+z4ZwB5AywAdD7ADAAz/oROHB+QBECkDfANASMDbd4784Ysnb/76N7f39kpDEb/Q22/grx9trP/gXHfaB6K/6FTHffyqTwawB9AyoNYDXAAQnwcUABAjA3oEgM55wm/fNfKHz7eX7/v6lYe+7aktP/SwRVv5x0fL9oYrey5vGJdsOVfdAtozLvn73nt/cv7X6OTCyEQ29scYwFG+uu+TAewBtAyo9gAXAMDwHzpN9wAVAKJjQO8A0CkK6gpBJzdQ3P3f/YnL+QHFwwPSJ2OqY+XHLx6wbAvD49ptYmFYr43UHyEJ+0uX7R0tk6A67uNXfTKAPYCWARUeoAuArzwAUV7qxOQBJQCIiwF/+OJJnYmHjaefS1YRdwK3yzVJCewf//1do91296hd0C+eHMDnB0B81+k0iwHsAbQMKPMAdwBIPGj0XhHlAIiIAWYAIGEARH/RsWVABTlcPOC9/WPpwH8c+p0OjQcsDE8IddCWgHFdCRg2kIDOzM9EAQNpHji8uSD2AFoGKD2ACgBxeEAlAGJhgDEAQmIAe4CCDfHOBbEH0DKg6AFUAIjDA+oAEAUDbAAQEgPYAwaKAewB5AzAKkALgKZ7gAYAms8ASwCExAD2gIFiAHsAOQNABWgB0HQP0ANAwxlgD4CQGMAeMFAMYA8gZ4DwAB8AaK4HaAOgyQxwAkBIDGAPGCgGsAeQM2C5NeMDAM31ABMANJYBrgAIiQHsAQPFAPYAcgb4A0ATPcAQAM1kAAEAQmIAe8BAMYA9gJYB/gDQRA8wB0ADGUADgJAYwB4wUAxgDyBkgG8ANMsDrADQNAaQASAkBrAHDBQD2AOoGOAbAM3yAFsANIoBlAAIiQHsAQPFAPYAEgb0BgBN8QAHADSHAfoAeOvO4WQ7oNrmvl8Q0V4R7AEDxQD2AHcG9AYATfEANwA0hAFGAGgcA9gDBooB7AGODOglAML3AGcANIEBpgBoHAPYAwaKAewBLgy4fv4lnb2B17/ywHJrtjiQd3wS2vkBFAAIngEWAGgcA9gDBooB7AHWDDACAAkDQvYAIgCEzQA7ADSOAewBA8UA9gA7BmgC4M/3fW25NSua46i/+PFwPIAOAAEzQBMA2xfeXP5/vy+3f3x0uSEtOQSxoj3yWNnRjzrPV7//+EpyJGR2rfhUo8+SXHv08d639cfO9qL94Ny6Vdt4/Jy/9pez5/y1zbNPSG3nnXd1poA6AJghZECYHkAKgFAZoAkAnV8Lfg9/A/wNDMI3kAKAkgGSCoTgAdQACJIBDIBB+BfLf0f+Bgi/AQEAsYFoxB7gAQDhMYABQPgPg38UfwOD8A0gA5jpnCUQZz5g6Lef2X/hbzy0O/Zf6LQ37jhA0/YdeKO8vbVvuKIxAAbhXyz/HfkbIPwGsAFE7AEJAKJnAAOA8B8G/yj+BgbhGygYQJwe0AVA3AxgAAzCv1j+O/I3QPgNFA0gSg/IABAxA/7w+Tbhbwb/KP4G+BuI/htYPX0GjhEudOLJBwz99jN3i1mg+OaC3th34K07h9/Yd+Dt/eO3t3ei/5XlvyB/A/wN0HwD2ztXZtsQ98XYH1+jqQsSAIicAW/dOXzt5VdofjP4p/A3wN9A7N/AjVdfW2mJSf+KawweAACIjQHJ8L9TGiRqh5JZIJaA2P/d8t+PvwGCb2B7Rzn/gw0gmnwABkBsDHhrXzL/89adw2IiaOkb37p9a5fg94N/BH8D/A3E+g3c2v3o4e/C5I9Gp9keIAEgWgZ0PeCLJ7ff/F2sv7r89+JvgL8Bl29g5513O7tAV0z7zETmAUUARMUAmAVKOp2E8Bv7Dvzh8+2lb3xL3vStuA2c0ZOGbBi3XLFbnHjJbc+4ih3iii/xnnGmu871YsO4x87abRi3/gOPG8ZtPO5xw7i/nD330cPfTaZ9Jqc1hvxKPDTVA5QAiIcB3VkgMReUzggpVxQrFhJ35o7EDJLOtf4gyQE4T/jigfH39o+prmMXDxTb+MUDlm1heFy7TSi2iR5WPRyZWNBuiyMThTa5OFJoo5OL5e3SWGtxdFJcF8fugXZpdLK0jbXwYQAW/ctjLbmNty7LberyuKItTSQPi1d489L4VLdNJG+ra9NLE7rtyuS0bZtRbhx9ZTIfyk2ifzQeUAaACBmQ2YAqskPSOEcC1TsrYNAsBvD5AQowaANgQQGACQUARqoAILPBJwP4/AAlBmyH/Hl4dEuGmucBFQCIhAGSBEBmGFYJiKmhXNzHOwtFzQA+R2ygGIB1QZaAsaIEtGBcr9kRZpAoArR6CZjSl4ClCRsJWG7NdNRBzwPqqz+z0B+BB1QDIHIGAAy6DLizZEe5qBnAHjBQDGAPYA9YnZ6DVguA+BlQE/2FDUTNAPaAgWIAewAtAxrtAToAiJwB3bUCKEWsng6KmgHsAQPFAPYAWgaoEgnNyAdoAiBqBqQVokl2F8/+F/tRM4A9YKAYwB5Ay4CGeoA+AKJmgAj9nYUCg5wTZg8YKAawB9AyoIkeYASAyBkAc0HsAUobeG//6Hv7x6xbcXFAZ8VAcXFAsozAtC0MT4iPaC8OGFfEeuXigGGDxQGNqw1lD6BlQOM8wBQATWWAKPiBJWD1taHF+R/8JOq5IPYABRt4fUC2UkyxQEynTjSo2tB0TRl9bWizPMACAE1jQOVJwmL9l7h2B/61mQBBgqgZoDQA8ZA9QGe1cGGRcNBrxNgDBtYD7ADQVAaUeUBOCEQmAI/3y/pRM4A9gD0gWyyWDf9hvRh7QLYiTDXqL74aYl2QNQAawoB9B964IzkY4I07DkjzP+IWkADz/jkbKAv98DxqBrAHDBQD2AMG0ANcANAkBiThHjEAYADhXpoLgucAhtJO1AxgDxgoBnBdEC0DVGYQlgc4AiBsBsDsvwj9QgXShzD2xyogorxB9BcqEDUD2AMGigHsAbQMCLwuyB0AYTMAh/60j4f/0M+lATph3QwDUTOAPWCgGMAeQMuAkD2ABABhMwAmf1IA4LE/7uNZILPozx7A6wPq6kS5LgiXivK+ocstsrmg1em5lalZce10ZlenoWX7vsEGcLhDBYCAGVAAQDLqFzBIp4OKHgBCUDr1D3lg3GEPcCCBtMRMdYCMzRoxWFPGa8Tw9E5tnz1gEDxg6P/817t/+xmqtv+3n+m2C3+zn77dsf9CpyXhW69duGN/Fu5xOVB5PgCcwCz0AwaiZgDnAwZqLghDIisJhQPFnGtD2QP67gEJAOJmAAaAuq/yAEsDGIC5IM4HDBQD2APi9oAuAOJjgBj742t32kfPA/CkkI0KsAdYzQXxfkG5QyXLDxPu5VmS7AG0DAiqLigDQHwMEBFfmgXSlwBmQOWEz9jv7072hpOunVunPeOkTIC45XyAHPGLbODzhCvPl083/7E4VDLm/YJyAIiMAUno7yR79T0AEgAQ/UXHRgI6xwxUnCBffKlZZ8pX4sGJAewB7AHJznF8nvDU7IpV068LkgEQIQOg5gfBAKaDukJQUhSEMcAMKEb8ogGIJ+wBOhvGNW7vaM4H0M4FhbA+QAGAOBjQHf7fcQAP/0Vfiv7JqF8AIMUAe0Ax1ls84X1DdTDA6wN4fQDOCvS4LkgNgAgZgEJ8DQYKRUHsAdXRnz2A64KyIlHn2lDgAZ8fYDf/U/EptEAsWTi2Oj1XCoCmMyBnAJ1FA5kKIBjkxv64QKgcAzwXVM0D6VX2APYAiOmaHV4f0DMPqAJArAx4Y193XkiK/t18QCdnUDYLJGyAGSBFeakWCDsB5wN0AMD5gDI2sAdUjOjtXsIeMPR//utdYi1Y2bWh64TVBtAZ+3dfQhiQ0wBpMgBP/kh9ZkCRARVP2AN0MMD5AIwB9oAeeIAAwEAyIK0OElNDuXNj8BwRzwXdPVoR2aWX8Ngf99kDdADAHoABgPvsAXaD/YpPCQ8AAAwoA8AGpOmg7hRQnQqwB0gAqL5lD9DBAHtALvRPdM+eDIoBy62Zzsoy+jViuCJI9L16AAbAgDKgNCXAHmAy9sehH4/9cZ89QAcA7AEYALgfFAPSpcX0DOjl+gAJALExoDQTINYHdEJ8UQJyw3+x7Wj5RJDNyQEDsGcc5oHUZw/QwQB7QC70swf4OT+gCIDYGPAGxPqyTie4QyagWwvUYUM3OcwMsFIBPPbHffYAHQCwB2AA4D57QMXMvulLSgA0nAHpsQHi8AAjCZAxIBLFcPYAe4AVCSQDELfsAToYYA/IhX72AGoPKANAwxnwN8k2cMmJNCkMkhxvmQHARFChLqhrAxgDzABDBuCxP+6zB+gAgD0AAwD32QNMB/vK91cAoJkMEBFfhH4EAHyUWKkTiJUBOPcLfZAA8aQcA1wXpBzvlz1kD9DBAHtALvSzB9B5QDUAGsuAFABv3HHgt5/p2EB6lmRp9Bd+gFaH5Yb/WAKYAYYS0BnsyycHCBtgD9ABAHsABgDuswcox/X6D2sB0CgG3NE5iLhzlaaA9OeCoCpUzgdgCWAGmDOgTALcGcDnB/D5AQkJ+PwA88MDdADQMAZkoT/1AJwMqDGA1AOkdWFZaRDGQPlEENeGKsM9zgHgvjsD+ByxABnA5weEf36AJgCawAA0/L9wycenzAAADbtJREFUx/7uzE+HAdJEUHU+oJsrTueCABgijSxfmQF0KsD5AJ3pIM4H5KaAOB/glg/QB0CTGCCCeHfgD6lg6GjnA4QHMAPevmvk7btGfn/XaK7Zhn489sd99gAdAHA+AAMA9zkfoD/1D+80AkC4DPjtZ5KKTzzqF33lVUzui5e6431UJArhXrxNXOWBP54I4nyALQlKpon4POGJWhKwB+RCP3uArQeYAqABDBARHLK+0m1XDkrWB4hALz6SDf+hPFSK+/iW54IMMYDH/rjPHlAb/cUbmsUAzgeEmQ+wAECoDOgYgIj7eOAvJoLwE6ELYmgveQCEfsCGwECNAQgSMAMMGaA0APGQ8wE6GGgWAy6NtaBlR0iOtbp957Mk+fwAi31Dh37zX+7qnAljer277ACZPp4jBhNB2fA/LQQqDvwBA+qgLy0b1pEAngsyBwAe++M+e4AOADgfgCeCcJ/zATDLX91JABAPA1IJABIkcT/N/UoSICEBMCCe47mg5CVpIRie/JH67AHmGChTAfYAHQywB+RCP+cDTPIBXQBEwwAI/ZIEFMN98oaUDeLNxdAPMz+CARgS8JKiwwwwZAAe++M+e4AOANgDMABwnz2gevi/MjWbASASBhQkAAI9NoAk9Heiv7REoMgACPrQUUR8SQJ4LsgQAGUGwPkATQA0jgGQDLgEOQDc4XxAa0Z1LEzpQ+tzxHIAiIQBf5PUg4qq0K4HiM1B08ofHPpFWC/LBwAPIPpDpx4D7AGGGMBjf9xnD9DEQLPmgrguKIS6IBkAkTBA5QE5A+i8IYnv6SyQiPVdYNyR7B8H0R9ivUH0F07ADDBkQIUKcD5ABwPNYgB7AC0DLDxAAYBIGFDwgCzEp5M/MDskMJAQolPtIwI9hHvlLVChpsMMMGQAHvvjPnuADgAaNxfEHkDLANXE0awoD1XmA9QAiIQBRQ8Q4/3OjFB32id9IqJ82VyQBIOaoC+lBJgBhgxgD1gYnpDbSP3yYCAEe0AuFcx1QeV1QaUAiIQBBQ/ozvmkEiDmhUAFMktI9wuCWM8MEDsCVV9zmwXdNVoRyqtfwmN/3GcPgChf3WkWA9gD+uUBVQCIhAHlHgCjfqgFymlBmjTGyQDAAIBBt8MewB4wPL6gboXxftEAxBP2gKxAaAoP82v7vE5YuU64BgCRMKDoAYVFACL9m8R6LAdoATCEfujohn6YEWIGGDIAj/1xnz2gevgPr7IHKMHA6wMgH1APgEgYoPIAPPAXw3yoFIJyIOiIcG8f/bkuyDD6V88RuTOAzxEL8AwZrguinQuqrQvSAkAcDBDTO5DmhU43xKcDf1CBLD2Q5gMg+kPHWAJ4jZg5BvDYH/fdGcDniAXIAM4H0DKgui5IFwAxMABJAMAA5nwuSKVBojooP1NEIwHMAHMGVNgArw+ACZ+KTrPmgtgDaBlQ4QEGAIiBAWkyANYJCxKIuSAxroelYYAEMTsEZiBubcb+kAxgBpgzAI/9cZ89oCLu45eaxQD2AFoGlHmAGQAiYEAS8VMMwCxQNtsjBv7IBoANkAxwmv9hBjjUhrIHyIsDhg0WBzRujRh7AC0DlB5gDIBIGICmgyCySxjoDvzT3ED2amejCBoMcF2QoQrgsT/uswfgwX5Fnz2A64KwDQz95r/cKY4EMLo2+wyZfPTH+QAR5eGKV40BJ/BckOtEEM8FGQKgQgLcGcB1QQHmhNkDaD1guTWDVUAAYPAY0NkOGkK/iOkwIwSxHupElSQgiP5cG2oFADz2x313BnBdUIAM4HwAOQNAAgAAA8kApAIAAznop4VAiufppqEEJOC5ICsSKIWA64IqpoDgpWbNBbEHkDNAeAAGwEAyQJwM05nolw0gTQgnQiD60IFbZsBdI9W7AxVf5f2CLh4Yv3igbFsI5XPeK6LFHkDOgOXWjASAAWUADP9xeSgsEZDH/tLxMsyA/jFAaQDiIXsADPYrOuwBOCc8aPsFKQHADOgeKJYN/GG8j8pDMydI1wkTTARxTth8IgjnAHCf8wEVcR+/1CwGsAfQekDRAO4cxLqg/MoAEILi2F/kh0EOMAZoAMAMMGcAewCvD7gMRwpn24W2Lnf7vG9o6WHCZQAYUA+Q1ogl9aD7DnRXAEBKADqQEkAbR9NggHPChhjAY3/cZw/Ag/2KPnsAnguCfvT7hlYAYEAZAMN/yAeITtEGspViMEfE+QDOB3QSvCLNq3NdGJ7gnDAu8rHoZ8N/9oBW6WAfSj9xpxoAA8oAyQNgWUC3AwYAnbwK0EgAzwUZSkBnsD+mvLIHVIz98UvsATD2x52IPaAWAIPKALREoKsCabjPVADiPqolhSQBDQZ4LsgcA2UpAa4LwrG+rN8sBmBdYA+A/DAe41f3h379n0XWt/p6l9FGERHsF5Rkd/OZ4SSyo6mebl+UhKZswG+gAQB7gDkAcA4A99kDyoK+9LxZDOC6IIj7uFMd9+HVBADMABHui9diPgC2CZILgUACECSYAcVVYNVPqNaIlUmAOwN4v6AA94pgD8ChH/oQ5Ss6XQAwA4rRH55gDGT5ABj1YzMADHBdkHk2WLCBigF47I/77gzg/YICZAB7AMR93KkI/eKlDADMAIj4cqeQD5DSALlyIGaAbegHOaBiAHsArw/IEgO8PkBVIJQDADNADv0QzfP5AFgfkCUGQAjQR0AXeC4Igrtmh4oBeOyP++wB0rx/2S3nA3A5EPSjqQuSAcAMKGVAwQNE9M8lA3D0F32eC7IVAioGsAewB7AHlM0FKQDADChlQN4DugN8GPuLWM8MuHPkbdFsQz9YAhUD8Ngf99kDygb+0nP2ABj7404EHqAGADOglAEVHiCywUUAcF2QAwmoGMAewB7AHlD0gFIAMANKGZD3ACgMzYSAGQAScKfxaQEw/IcOFQPw2B/32QOk8X7ZLXsAHv5Dv9EeUAUAZkApAwoeoC4EkkjA+QBbFaBiAHsAewB7APaAGgAwA0oZUPCAGgMQMGAG9JsBeOyP++wBZQN/6Tl7AIz9caehHlAPAGZAKQPyHiCKgkrfDDbADOg3A9gD2APYAxQLwcS2EMpr55QY3i+osx0QhPJOR7FOOP8GBRKYAf1mAB774z57gDTeL7tlD8DDf+g3zgO0DID3C1IEcYjyyAMSGMDz6g4zoN8MYA9gD2APMAAAzwXVB/c0rNe/k2tDbQHw9l0jVDlhPPbHffaAsoG/9Jw9AMb+uNMgDzADADOgOrL/9jPJgfLsAd2FYLgYVOo7RH9RHkrFAPYA9oBB9gBjADADqhlg/GoqDbxfEBT+a3aoGIDH/rjPHiCN98tu2QPw8B/6jfAAGwAwA4yjPOcDJAMQt+wBB8YuZm1c5wxh/B4+TxifBGDXz4b/A3mesCUAmAHMgLfuHK5u9RNBvE44i/6CBMYMAB4sDI9rtwnFtM+w6uHIRNmov/icPQDG/rgTuAfYA4AZwAyoBsBbdw43iwGcD1CAIV4GYGMYWA9wAgAzgBkQGQNwDgD3OR9QHPIrn7AH4OE/9IP1AFcAMAOYAZExgD2APSATgtjPESMAADOAGRAZA/DYH/fZA5Sj/uJD9gAY++NOgB4w9Ov/vE+594PpQ94rghIDXBtqWyBEVRvKHsAeELcHLLdmrkxOCwAwA+7+7WdMW3fNl8Gyr+piUOlVZkC/GYDH/rjPHlAc8iufsAfg4T/0g/IAAAAzwBQAd8O6X2ZA7RQQvIHrgt7bP/be/rGLB8ala+cWLwuAvnFtKK8PwBU+dv1s+B/1+gAMAGYAM2D4rX3mrW5BAER/0WkWA/DYH/fZA5Sj/uJD9gAY++NOIB4gAYAZwAwwB8C+mhVhEgB4fYCQAMkAhBOwByyOTta3sXsW03ZpdLK0jbXshv/wqeg9YOj//0/7OnlgfL3TNANcfD/nhDknXIz7+Al7AGCg2EH7Q8BEUDJrZN20FwmPK3K/ykXCwwaLhBdGJtgD8PAf+n33gAQAzADzDHBRFDgnzB6QTO5bNM4HLI5MZk3HAMR7UglYHLunVAJGJ2E4b92J2AO6AGAGMAPe2HcAN5tkQOxzQTgHgPucDyhO/SufsAfA2B93+ugBGQCYAcwADIA39h1gBlSsBii+9N7+UYvhP3yEPSCTgBGNNACIAnvAxPRSebsyOV3RcgBgBjADmAHFyC49wWN/3GcPUI76iw/ZA/DwH/p98QAZAMwAZgAzQIr4RrfsAcWIX3zSLAbg5EFk+QAFAJgBzABmQG3Qx2N/3GcPKIZ75ZNmMeDy+NSlsVb3CkvDoOO8Z1y/PEANAGYAM4AZUMuAijewByiDvvSwWQyI0gNKAcAMYAYwAypCvHgJj/1xnz1AivVlt81iQHweUAUAZgAzgBlQy4CKN7AHlMV9/LxZDIjMA2oAwAxgBjADKkI8e0DpyuF4z5KMyQPqAcAMYAYwA2oZUPEG9gA83i/rswdAHvjy+NTSxJS49V0bqgUAZgAzgBlQEeLZA9gD5PLQhtQF6QKAGcAMYAbUMqDiDewBZWN//Jw9oMceYAAAZgAzgBlQEeLZA9gDGucBZgBgBjADmAG1DKh4A3sAHu+X9dkDeuYBxgBgBjADmAEVIZ49gD2gQR5gAwBmADOAGVDLgIo3sAeUjf3xc/aAHniAJQCYAcwAZkBFiGcPYA9ohAfYA4AZwAxgBtQyoOIN7AF4vF/WZw/w6gH/F/GgjfrctYBCAAAAAElFTkSuQmCC;" parent="1" vertex="1">
                    <mxGeometry x="-10" y="120" width="40" height="40" as="geometry"/>
                </mxCell>
                <mxCell id="25" value="" style="sketch=0;points=[[0,0,0],[0.25,0,0],[0.5,0,0],[0.75,0,0],[1,0,0],[0,1,0],[0.25,1,0],[0.5,1,0],[0.75,1,0],[1,1,0],[0,0.25,0],[0,0.5,0],[0,0.75,0],[1,0.25,0],[1,0.5,0],[1,0.75,0]];points=[[0,0,0],[0.25,0,0],[0.5,0,0],[0.75,0,0],[1,0,0],[0,1,0],[0.25,1,0],[0.5,1,0],[0.75,1,0],[1,1,0],[0,0.25,0],[0,0.5,0],[0,0.75,0],[1,0.25,0],[1,0.5,0],[1,0.75,0]];outlineConnect=0;fontColor=#232F3E;fillColor=#E7157B;strokeColor=#ffffff;dashed=0;verticalLabelPosition=bottom;verticalAlign=top;align=center;html=1;fontSize=12;fontStyle=0;aspect=fixed;shape=mxgraph.aws4.resourceIcon;resIcon=mxgraph.aws4.cloudwatch_2;" parent="1" vertex="1">
                    <mxGeometry x="220.5" y="120" width="40" height="40" as="geometry"/>
                </mxCell>
                <mxCell id="26" value="" style="sketch=0;points=[[0,0,0],[0.25,0,0],[0.5,0,0],[0.75,0,0],[1,0,0],[0,1,0],[0.25,1,0],[0.5,1,0],[0.75,1,0],[1,1,0],[0,0.25,0],[0,0.5,0],[0,0.75,0],[1,0.25,0],[1,0.5,0],[1,0.75,0]];outlineConnect=0;fontColor=#232F3E;fillColor=#E7157B;strokeColor=#ffffff;dashed=0;verticalLabelPosition=bottom;verticalAlign=top;align=center;html=1;fontSize=12;fontStyle=0;aspect=fixed;shape=mxgraph.aws4.resourceIcon;resIcon=mxgraph.aws4.sns;" parent="1" vertex="1">
                    <mxGeometry x="220.5" y="370" width="40" height="40" as="geometry"/>
                </mxCell>
                <mxCell id="27" value="" style="endArrow=classic;html=1;" parent="1" edge="1">
                    <mxGeometry width="50" height="50" relative="1" as="geometry">
                        <mxPoint x="239.88" y="290" as="sourcePoint"/>
                        <mxPoint x="240" y="360" as="targetPoint"/>
                    </mxGeometry>
                </mxCell>
                <mxCell id="33" value="IAM Roles" style="text;html=1;align=center;verticalAlign=middle;whiteSpace=wrap;rounded=0;" parent="1" vertex="1">
                    <mxGeometry x="-20" y="90" width="60" height="30" as="geometry"/>
                </mxCell>
                <mxCell id="35" value="SES" style="text;html=1;align=center;verticalAlign=middle;whiteSpace=wrap;rounded=0;" parent="1" vertex="1">
                    <mxGeometry x="210" y="210" width="60" height="30" as="geometry"/>
                </mxCell>
                <mxCell id="36" value="API Gateway" style="text;html=1;align=center;verticalAlign=middle;whiteSpace=wrap;rounded=0;" parent="1" vertex="1">
                    <mxGeometry x="-50" y="200" width="60" height="30" as="geometry"/>
                </mxCell>
                <mxCell id="37" value="CloudFront" style="text;html=1;align=center;verticalAlign=middle;whiteSpace=wrap;rounded=0;" parent="1" vertex="1">
                    <mxGeometry x="203" y="490" width="60" height="30" as="geometry"/>
                </mxCell>
                <mxCell id="38" value="S3" style="text;html=1;align=center;verticalAlign=middle;whiteSpace=wrap;rounded=0;" parent="1" vertex="1">
                    <mxGeometry x="340" y="490" width="60" height="30" as="geometry"/>
                </mxCell>
                <mxCell id="39" value="Business Notification" style="text;html=1;align=center;verticalAlign=middle;whiteSpace=wrap;rounded=0;" parent="1" vertex="1">
                    <mxGeometry x="340.53" y="140" width="60" height="30" as="geometry"/>
                </mxCell>
                <mxCell id="40" value="Client" style="text;html=1;align=center;verticalAlign=middle;whiteSpace=wrap;rounded=0;" parent="1" vertex="1">
                    <mxGeometry x="-220" y="245" width="60" height="30" as="geometry"/>
                </mxCell>
                <mxCell id="66" value="" style="edgeStyle=none;html=1;exitX=0.5;exitY=0;exitDx=0;exitDy=0;" parent="1" edge="1">
                    <mxGeometry relative="1" as="geometry">
                        <mxPoint x="240.25" y="210" as="sourcePoint"/>
                        <mxPoint x="240" y="170" as="targetPoint"/>
                    </mxGeometry>
                </mxCell>
                <mxCell id="41" value="CloudWatch&amp;nbsp;&lt;div&gt;(Deilvery Tracking Metrics)&lt;/div&gt;" style="text;html=1;align=center;verticalAlign=middle;whiteSpace=wrap;rounded=0;" parent="1" vertex="1">
                    <mxGeometry x="165" y="80" width="150" height="30" as="geometry"/>
                </mxCell>
                <mxCell id="42" value="SNS&amp;nbsp;&lt;div&gt;(Delivery Tracking)&lt;/div&gt;" style="text;html=1;align=center;verticalAlign=middle;whiteSpace=wrap;rounded=0;" parent="1" vertex="1">
                    <mxGeometry x="170.75" y="420" width="139.5" height="30" as="geometry"/>
                </mxCell>
                <mxCell id="45" value="&lt;div&gt;Submit + Email Client &amp;amp; Business&lt;/div&gt;" style="text;html=1;align=center;verticalAlign=middle;whiteSpace=wrap;rounded=0;" parent="1" vertex="1">
                    <mxGeometry x="60" y="290" width="100" height="20" as="geometry"/>
                </mxCell>
                <mxCell id="46" value="DynamoDB" style="text;html=1;align=center;verticalAlign=middle;whiteSpace=wrap;rounded=0;" parent="1" vertex="1">
                    <mxGeometry x="72.5" y="90" width="75" height="30" as="geometry"/>
                </mxCell>
                <mxCell id="49" value="" style="sketch=0;points=[[0,0,0],[0.25,0,0],[0.5,0,0],[0.75,0,0],[1,0,0],[0,1,0],[0.25,1,0],[0.5,1,0],[0.75,1,0],[1,1,0],[0,0.25,0],[0,0.5,0],[0,0.75,0],[1,0.25,0],[1,0.5,0],[1,0.75,0]];outlineConnect=0;fontColor=#232F3E;fillColor=#FF3399;strokeColor=#ffffff;dashed=0;verticalLabelPosition=bottom;verticalAlign=top;align=center;html=1;fontSize=12;fontStyle=0;aspect=fixed;shape=mxgraph.aws4.resourceIcon;resIcon=mxgraph.aws4.route_53;" parent="1" vertex="1">
                    <mxGeometry x="82.99999999999999" y="521" width="39" height="39" as="geometry"/>
                </mxCell>
                <mxCell id="50" value="Route 53" style="text;html=1;align=center;verticalAlign=middle;whiteSpace=wrap;rounded=0;" parent="1" vertex="1">
                    <mxGeometry x="72.49999999999999" y="491" width="60" height="9" as="geometry"/>
                </mxCell>
                <mxCell id="51" value="" style="endArrow=classic;html=1;" parent="1" edge="1">
                    <mxGeometry width="50" height="50" relative="1" as="geometry">
                        <mxPoint x="133" y="539.47" as="sourcePoint"/>
                        <mxPoint x="203" y="540" as="targetPoint"/>
                    </mxGeometry>
                </mxCell>
                <mxCell id="53" value="" style="endArrow=classic;html=1;" parent="1" edge="1">
                    <mxGeometry width="50" height="50" relative="1" as="geometry">
                        <mxPoint x="10" y="259.64" as="sourcePoint"/>
                        <mxPoint x="80" y="260.16999999999996" as="targetPoint"/>
                    </mxGeometry>
                </mxCell>
                <mxCell id="54" value="" style="endArrow=classic;html=1;" parent="1" edge="1">
                    <mxGeometry width="50" height="50" relative="1" as="geometry">
                        <mxPoint x="110" y="230.00000000000006" as="sourcePoint"/>
                        <mxPoint x="110" y="170" as="targetPoint"/>
                    </mxGeometry>
                </mxCell>
                <mxCell id="55" value="" style="endArrow=classic;html=1;" parent="1" edge="1">
                    <mxGeometry width="50" height="50" relative="1" as="geometry">
                        <mxPoint x="140" y="259.64" as="sourcePoint"/>
                        <mxPoint x="210" y="260.16999999999996" as="targetPoint"/>
                    </mxGeometry>
                </mxCell>
                <mxCell id="56" value="" style="sketch=0;outlineConnect=0;fontColor=#232F3E;gradientColor=none;fillColor=#232F3D;strokeColor=none;dashed=0;verticalLabelPosition=bottom;verticalAlign=top;align=center;html=1;fontSize=12;fontStyle=0;aspect=fixed;pointerEvents=1;shape=mxgraph.aws4.client;" parent="1" vertex="1">
                    <mxGeometry x="350" y="280" width="41.05" height="40" as="geometry"/>
                </mxCell>
                <mxCell id="57" value="Client Confirmation" style="text;html=1;align=center;verticalAlign=middle;whiteSpace=wrap;rounded=0;" parent="1" vertex="1">
                    <mxGeometry x="340" y="330" width="60" height="30" as="geometry"/>
                </mxCell>
                <mxCell id="58" value="" style="edgeStyle=elbowEdgeStyle;elbow=horizontal;endArrow=classic;html=1;curved=0;rounded=0;endSize=8;startSize=8;" parent="1" edge="1">
                    <mxGeometry width="50" height="50" relative="1" as="geometry">
                        <mxPoint x="270" y="250" as="sourcePoint"/>
                        <mxPoint x="340" y="210" as="targetPoint"/>
                        <Array as="points">
                            <mxPoint x="300" y="230"/>
                        </Array>
                    </mxGeometry>
                </mxCell>
                <mxCell id="59" value="" style="edgeStyle=elbowEdgeStyle;elbow=horizontal;endArrow=classic;html=1;curved=0;rounded=0;endSize=8;startSize=8;" parent="1" edge="1">
                    <mxGeometry width="50" height="50" relative="1" as="geometry">
                        <mxPoint x="270" y="270" as="sourcePoint"/>
                        <mxPoint x="340" y="310" as="targetPoint"/>
                        <Array as="points">
                            <mxPoint x="300" y="290"/>
                        </Array>
                    </mxGeometry>
                </mxCell>
                <mxCell id="60" value="" style="endArrow=classic;html=1;" parent="1" edge="1">
                    <mxGeometry width="50" height="50" relative="1" as="geometry">
                        <mxPoint x="-110" y="259.52" as="sourcePoint"/>
                        <mxPoint x="-50" y="260" as="targetPoint"/>
                    </mxGeometry>
                </mxCell>
                <mxCell id="61" value="" style="edgeStyle=segmentEdgeStyle;endArrow=classic;html=1;curved=0;rounded=0;endSize=8;startSize=8;" parent="1" edge="1">
                    <mxGeometry width="50" height="50" relative="1" as="geometry">
                        <mxPoint x="-140" y="290" as="sourcePoint"/>
                        <mxPoint x="70" y="540" as="targetPoint"/>
                        <Array as="points">
                            <mxPoint x="-140" y="540"/>
                            <mxPoint x="-50" y="540"/>
                        </Array>
                    </mxGeometry>
                </mxCell>
                <mxCell id="67" value="" style="sketch=0;points=[[0,0,0],[0.25,0,0],[0.5,0,0],[0.75,0,0],[1,0,0],[0,1,0],[0.25,1,0],[0.5,1,0],[0.75,1,0],[1,1,0],[0,0.25,0],[0,0.5,0],[0,0.75,0],[1,0.25,0],[1,0.5,0],[1,0.75,0]];points=[[0,0,0],[0.25,0,0],[0.5,0,0],[0.75,0,0],[1,0,0],[0,1,0],[0.25,1,0],[0.5,1,0],[0.75,1,0],[1,1,0],[0,0.25,0],[0,0.5,0],[0,0.75,0],[1,0.25,0],[1,0.5,0],[1,0.75,0]];outlineConnect=0;fontColor=#232F3E;fillColor=#E7157B;strokeColor=#ffffff;dashed=0;verticalLabelPosition=bottom;verticalAlign=top;align=center;html=1;fontSize=12;fontStyle=0;aspect=fixed;shape=mxgraph.aws4.resourceIcon;resIcon=mxgraph.aws4.cloudwatch_2;" parent="1" vertex="1">
                    <mxGeometry x="90.5" y="370" width="40" height="40" as="geometry"/>
                </mxCell>
                <mxCell id="68" value="CloudWatch (Lambda Error)" style="text;html=1;align=center;verticalAlign=middle;whiteSpace=wrap;rounded=0;" parent="1" vertex="1">
                    <mxGeometry x="65.75" y="420" width="89.5" height="30" as="geometry"/>
                </mxCell>
                <mxCell id="69" value="" style="endArrow=classic;html=1;" parent="1" edge="1">
                    <mxGeometry width="50" height="50" relative="1" as="geometry">
                        <mxPoint x="110" y="320" as="sourcePoint"/>
                        <mxPoint x="110" y="360" as="targetPoint"/>
                    </mxGeometry>
                </mxCell>
                <mxCell id="70" value="eu-west-1 (Ireland)" style="sketch=0;outlineConnect=0;gradientColor=none;html=1;whiteSpace=wrap;fontSize=12;fontStyle=0;shape=mxgraph.aws4.group;grIcon=mxgraph.aws4.group_availability_zone;strokeColor=#545B64;fillColor=none;verticalAlign=top;align=left;spacingLeft=30;fontColor=#545B64;dashed=1;" parent="1" vertex="1">
                    <mxGeometry x="-80" y="50" width="400" height="540" as="geometry"/>
                </mxCell>
                <mxCell id="74" value="AWS Cloud" style="sketch=0;outlineConnect=0;gradientColor=none;html=1;whiteSpace=wrap;fontSize=12;fontStyle=0;shape=mxgraph.aws4.group;grIcon=mxgraph.aws4.group_aws_cloud;strokeColor=#000000;fillColor=none;verticalAlign=top;align=left;spacingLeft=30;fontColor=#AAB7B8;dashed=0;" parent="1" vertex="1">
                    <mxGeometry x="-219.5" y="15" width="660" height="610" as="geometry"/>
                </mxCell>
                <mxCell id="76" value="" style="endArrow=classic;html=1;" parent="1" edge="1">
                    <mxGeometry width="50" height="50" relative="1" as="geometry">
                        <mxPoint x="72.5" y="390" as="sourcePoint"/>
                        <mxPoint x="30" y="390" as="targetPoint"/>
                    </mxGeometry>
                </mxCell>
                <mxCell id="77" value="" style="sketch=0;points=[[0,0,0],[0.25,0,0],[0.5,0,0],[0.75,0,0],[1,0,0],[0,1,0],[0.25,1,0],[0.5,1,0],[0.75,1,0],[1,1,0],[0,0.25,0],[0,0.5,0],[0,0.75,0],[1,0.25,0],[1,0.5,0],[1,0.75,0]];outlineConnect=0;fontColor=#232F3E;fillColor=#E7157B;strokeColor=#ffffff;dashed=0;verticalLabelPosition=bottom;verticalAlign=top;align=center;html=1;fontSize=12;fontStyle=0;aspect=fixed;shape=mxgraph.aws4.resourceIcon;resIcon=mxgraph.aws4.sns;" parent="1" vertex="1">
                    <mxGeometry x="-20" y="370" width="40" height="40" as="geometry"/>
                </mxCell>
                <mxCell id="78" value="SNS&amp;nbsp;&lt;div&gt;(Error Notification)&lt;/div&gt;" style="text;html=1;align=center;verticalAlign=middle;whiteSpace=wrap;rounded=0;" parent="1" vertex="1">
                    <mxGeometry x="-69.75" y="420" width="139.5" height="30" as="geometry"/>
                </mxCell>
            </root>
        </mxGraphModel>
    </diagram>
</mxfile>